<svg aria-hidden="true" style="position: absolute; width: 0; height: 0; overflow: hidden;" version="1.1" xmlns="http://www.w3.org/2000/svg" xmlns:xlink="http://www.w3.org/1999/xlink">
<defs>

<symbol id="icon-grid" viewBox="0 0 32 32">
<title>grid</title>
<path d="M8 12h4v-4h-4v4zM14 12h4v-4h-4v4zM20 8v4h4v-4h-4zM8 18h4v-4h-4v4zM14 18h4v-4h-4v4zM20 18h4v-4h-4v4zM8 24h4v-4h-4v4zM14 24h4v-4h-4v4zM20 24h4v-4h-4v4z"></path>
</symbol>

<symbol id="icon-user" viewBox="0 0 20 20">
<title>user</title>
<path d="M10 20c-5.523 0-10-4.477-10-10s4.477-10 10-10v0c5.523 0 10 4.477 10 10s-4.477 10-10 10v0zM7 6v2c0 1.657 1.343 3 3 3s3-1.343 3-3v0-2c0-1.657-1.343-3-3-3s-3 1.343-3 3v0zM3.35 14.44c1.456 2.155 3.89 3.553 6.65 3.553s5.194-1.398 6.632-3.525l0.018-0.028c-1.951-0.918-4.238-1.453-6.65-1.453s-4.699 0.536-6.748 1.495l0.098-0.041z"></path>
</symbol>

<symbol id="icon-google" viewBox="0 0 32 32">
<title>google</title>
<path d="M16.32 13.713v5.487h9.075c-0.367 2.353-2.741 6.899-9.075 6.899-5.46 0-9.919-4.519-9.919-10.099s4.46-10.099 9.919-10.099c3.107 0 5.188 1.319 6.38 2.465l4.339-4.184c-2.787-2.601-6.4-4.183-10.719-4.183-8.847 0-16 7.153-16 16s7.153 16 16 16c9.235 0 15.36-6.492 15.36-15.635 0-1.051-0.113-1.853-0.252-2.652h-15.108z">
</path>
</symbol>


<symbol id="icon-maps" viewBox="0 0 50 50">
<title>maps</title>
<g>
<path style=" stroke:none;fill-rule:nonzero;fill:rgb(10.980392%,60%,34.117647%);fill-opacity:1;" d="M 43.75 40.625 L 43.75 9.375 C 43.75 7.648438 42.351562 6.25 40.625 6.25 L 9.375 6.25 C 7.648438 6.25 6.25 7.648438 6.25 9.375 L 6.25 40.625 C 6.25 42.351562 7.648438 43.75 9.375 43.75 L 40.625 43.75 C 42.351562 43.75 43.75 42.351562 43.75 40.625 Z M 43.75 40.625 "/>
<path style=" stroke:none;fill-rule:nonzero;fill:rgb(24.313725%,48.235294%,94.509804%);fill-opacity:1;" d="M 9.375 43.75 L 40.625 43.75 C 42.351562 43.75 25 27.082031 25 27.082031 C 25 27.082031 7.648438 43.75 9.375 43.75 Z M 9.375 43.75 "/>
<path style=" stroke:none;fill-rule:nonzero;fill:rgb(79.607843%,80%,78.823529%);fill-opacity:1;" d="M 43.75 40.625 L 43.75 9.375 C 43.75 7.648438 27.082031 25 27.082031 25 C 27.082031 25 43.75 42.351562 43.75 40.625 Z M 43.75 40.625 "/>
<path style=" stroke:none;fill-rule:nonzero;fill:rgb(93.72549%,93.72549%,93.72549%);fill-opacity:1;" d="M 40.625 43.75 C 42.351562 43.75 43.75 42.351562 43.75 40.625 L 43.75 40.371094 L 27.339844 23.957031 L 23.957031 27.339844 L 40.371094 43.75 Z M 40.625 43.75 "/>
<path style=" stroke:none;fill-rule:nonzero;fill:rgb(100%,84.313725%,23.921569%);fill-opacity:1;" d="M 43.75 9.375 C 43.75 7.648438 42.351562 6.25 40.625 6.25 L 40.371094 6.25 L 6.25 40.371094 L 6.25 40.625 C 6.25 42.351562 7.648438 43.75 9.375 43.75 L 9.628906 43.75 L 43.75 9.628906 Z M 43.75 9.375 "/>
<path style=" stroke:none;fill-rule:nonzero;fill:rgb(84.313725%,24.705882%,20.784314%);fill-opacity:1;" d="M 37.5 2.082031 C 31.746094 2.082031 27.082031 6.746094 27.082031 12.5 C 27.082031 19.597656 35.070312 22.183594 36.804688 33.179688 C 36.917969 33.886719 36.925781 34.375 37.5 34.375 C 38.074219 34.375 38.082031 33.886719 38.195312 33.179688 C 39.929688 22.183594 47.917969 19.597656 47.917969 12.5 C 47.917969 6.746094 43.253906 2.082031 37.5 2.082031 Z M 37.5 2.082031 "/>
<path style=" stroke:none;fill-rule:nonzero;fill:rgb(45.882353%,14.901961%,13.333333%);fill-opacity:1;" d="M 37.5 8.855469 C 35.488281 8.855469 33.855469 10.488281 33.855469 12.5 C 33.855469 14.511719 35.488281 16.144531 37.5 16.144531 C 39.511719 16.144531 41.144531 14.511719 41.144531 12.5 C 41.144531 10.488281 39.511719 8.855469 37.5 8.855469 Z M 37.5 8.855469 "/>
<path style=" stroke:none;fill-rule:nonzero;fill:rgb(100%,100%,100%);fill-opacity:1;" d="M 15.097656 13.054688 L 15.097656 15.242188 L 18.214844 15.242188 C 17.808594 16.570312 16.699219 17.519531 15.097656 17.519531 C 13.1875 17.519531 11.640625 15.972656 11.640625 14.0625 C 11.640625 12.152344 13.1875 10.605469 15.097656 10.605469 C 15.957031 10.605469 16.738281 10.917969 17.34375 11.4375 L 18.957031 9.824219 C 17.9375 8.898438 16.582031 8.332031 15.097656 8.332031 C 11.933594 8.332031 9.367188 10.898438 9.367188 14.0625 C 9.367188 17.226562 11.933594 19.792969 15.097656 19.792969 C 20.105469 19.792969 20.96875 15.292969 20.496094 13.0625 Z M 15.097656 13.054688 "/>
</g>
</symbol>

<symbol id="icon-youtube" viewBox="0 0 32 32">
<title>youtube</title>
<path d="M31.327 8.273c-0.386-1.353-1.431-2.398-2.756-2.777l-0.028-0.007c-2.493-0.668-12.528-0.668-12.528-0.668s-10.009-0.013-12.528 0.668c-1.353 0.386-2.398 1.431-2.777 2.756l-0.007 0.028c-0.443 2.281-0.696 4.903-0.696 7.585 0 0.054 0 0.109 0 0.163l-0-0.008c-0 0.037-0 0.082-0 0.126 0 2.682 0.253 5.304 0.737 7.845l-0.041-0.26c0.386 1.353 1.431 2.398 2.756 2.777l0.028 0.007c2.491 0.669 12.528 0.669 12.528 0.669s10.008 0 12.528-0.669c1.353-0.386 2.398-1.431 2.777-2.756l0.007-0.028c0.425-2.233 0.668-4.803 0.668-7.429 0-0.099-0-0.198-0.001-0.297l0 0.015c0.001-0.092 0.001-0.201 0.001-0.31 0-2.626-0.243-5.196-0.708-7.687l0.040 0.258zM12.812 20.801v-9.591l8.352 4.803z">
</path>
</symbol>

<symbol id="icon-play" viewBox="0 0 32 32">
<title>play</title>
<path d="M1.627 0c-0.040 0.124-0.080 0.247-0.080 0.411v30.972c0 0.289 0.081 0.453 0.245 0.617l15.22-16.124-15.385-15.876zM18.039 16.944l3.935 4.060-5.617 3.2s-7.14 4.059-11.077 6.319l12.76-13.579zM19.107 15.836l4.221 4.389c0.661-0.368 5.828-3.323 6.565-3.733 0.779-0.451 0.7-1.067 0.039-1.395-0.612-0.34-5.779-3.3-6.56-3.78l-4.265 4.519zM18.036 14.769l3.979-4.225-5.679-3.241s-9.257-5.296-12.337-7.064l14.037 14.531z"></path>
</symbol>

<symbol id="icon-github" viewBox="0 0 32 32">
<title>github</title>
<path d="M16 0.395c-8.836 0-16 7.163-16 16 0 7.069 4.585 13.067 10.942 15.182 0.8 0.148 1.094-0.347 1.094-0.77 0-0.381-0.015-1.642-0.022-2.979-4.452 0.968-5.391-1.888-5.391-1.888-0.728-1.849-1.776-2.341-1.776-2.341-1.452-0.993 0.11-0.973 0.11-0.973 1.606 0.113 2.452 1.649 2.452 1.649 1.427 2.446 3.743 1.739 4.656 1.33 0.143-1.034 0.558-1.74 1.016-2.14-3.554-0.404-7.29-1.777-7.29-7.907 0-1.747 0.625-3.174 1.649-4.295-0.166-0.403-0.714-2.030 0.155-4.234 0 0 1.344-0.43 4.401 1.64 1.276-0.355 2.645-0.532 4.005-0.539 1.359 0.006 2.729 0.184 4.008 0.539 3.054-2.070 4.395-1.64 4.395-1.64 0.871 2.204 0.323 3.831 0.157 4.234 1.026 1.12 1.647 2.548 1.647 4.295 0 6.145-3.743 7.498-7.306 7.895 0.574 0.497 1.085 1.47 1.085 2.963 0 2.141-0.019 3.864-0.019 4.391 0 0.426 0.288 0.925 1.099 0.768 6.354-2.118 10.933-8.113 10.933-15.18 0-8.837-7.164-16-16-16z"></path>
</symbol>

<svg id="icon-react" viewBox="0 0 32 32">
<title>react</title>
<path d="M16 13.148c-1.575 0-2.852 1.277-2.852 2.852s1.277 2.852 2.852 2.852v0c1.575 0 2.852-1.277 2.852-2.852s-1.277-2.852-2.852-2.852v0zM8.011 21.673l-0.629-0.16c-4.691-1.185-7.381-3.197-7.381-5.519s2.691-4.333 7.381-5.519l0.629-0.159 0.177 0.624c0.545 1.86 1.163 3.443 1.899 4.957l-0.082-0.186 0.135 0.284-0.135 0.284c-0.656 1.329-1.275 2.912-1.761 4.551l-0.056 0.22-0.177 0.623zM7.089 11.933c-3.565 1.001-5.753 2.533-5.753 4.061 0 1.527 2.188 3.059 5.753 4.061 0.512-1.62 1.046-2.965 1.662-4.263l-0.086 0.202c-0.531-1.098-1.066-2.443-1.511-3.828l-0.065-0.234zM23.989 21.673l-0.177-0.625c-0.544-1.859-1.162-3.441-1.9-4.954l0.081 0.184-0.135-0.284 0.135-0.284c0.656-1.329 1.275-2.911 1.762-4.55l0.056-0.221 0.177-0.624 0.631 0.159c4.689 1.185 7.38 3.197 7.38 5.52s-2.691 4.333-7.38 5.519l-0.631 0.16zM23.335 15.995c0.64 1.385 1.169 2.747 1.576 4.061 3.567-1.003 5.753-2.535 5.753-4.061 0-1.528-2.188-3.059-5.753-4.061-0.511 1.619-1.045 2.963-1.662 4.262l0.086-0.2zM7.080 11.927l-0.177-0.623c-1.319-4.648-0.919-7.979 1.097-9.141 1.977-1.141 5.152 0.207 8.479 3.621l0.453 0.465-0.453 0.465c-1.146 1.19-2.207 2.482-3.162 3.853l-0.068 0.103-0.18 0.257-0.313 0.027c-1.875 0.151-3.596 0.439-5.264 0.86l0.218-0.047-0.629 0.159zM9.608 3.087c-0.357 0-0.673 0.077-0.94 0.231-1.325 0.764-1.56 3.42-0.647 7.004 1.21-0.285 2.681-0.521 4.18-0.658l0.131-0.010c0.894-1.264 1.792-2.37 2.756-3.414l-0.020 0.022c-2.080-2.025-4.049-3.175-5.46-3.175zM22.393 30.236c-0.001 0-0.001 0 0 0-1.9 0-4.34-1.431-6.872-4.031l-0.453-0.465 0.453-0.465c1.146-1.19 2.206-2.482 3.16-3.854l0.068-0.103 0.18-0.257 0.312-0.027c1.875-0.15 3.597-0.438 5.267-0.858l-0.218 0.046 0.629-0.159 0.179 0.624c1.316 4.645 0.917 7.977-1.099 9.139-0.449 0.259-0.988 0.411-1.562 0.411-0.016 0-0.031-0-0.047-0l0.002 0zM16.932 25.728c2.080 2.025 4.049 3.175 5.46 3.175h0.001c0.356 0 0.673-0.077 0.939-0.231 1.325-0.764 1.561-3.421 0.647-7.005-1.212 0.286-2.682 0.522-4.182 0.658l-0.13 0.010c-0.893 1.265-1.791 2.371-2.755 3.416l0.020-0.022zM24.92 11.927l-0.629-0.159c-1.453-0.376-3.175-0.664-4.939-0.806l-0.111-0.007-0.312-0.027-0.18-0.257c-1.021-1.474-2.082-2.766-3.237-3.966l0.009 0.010-0.453-0.465 0.453-0.465c3.325-3.413 6.499-4.761 8.479-3.621 2.016 1.163 2.416 4.493 1.099 9.14l-0.179 0.624zM19.667 9.653c1.523 0.139 2.969 0.364 4.312 0.668 0.915-3.584 0.679-6.24-0.647-7.004-1.317-0.761-3.793 0.405-6.4 2.944 0.943 1.022 1.841 2.128 2.666 3.289l0.069 0.103zM9.608 30.236c-0.014 0-0.030 0-0.046 0-0.574 0-1.113-0.152-1.577-0.419l0.015 0.008c-2.016-1.161-2.416-4.492-1.097-9.139l0.176-0.624 0.629 0.159c1.54 0.388 3.239 0.661 5.047 0.812l0.313 0.027 0.179 0.257c1.022 1.475 2.083 2.767 3.239 3.967l-0.010-0.010 0.453 0.465-0.453 0.465c-2.531 2.6-4.971 4.031-6.868 4.031zM8.021 21.667c-0.915 3.584-0.679 6.241 0.647 7.005 1.316 0.751 3.791-0.407 6.4-2.944-0.943-1.022-1.841-2.129-2.667-3.29l-0.069-0.103c-1.629-0.146-3.099-0.382-4.534-0.711l0.224 0.043zM16 22.504c-1.097 0-2.225-0.048-3.355-0.141l-0.313-0.027-0.18-0.257c-0.544-0.768-1.139-1.691-1.697-2.639l-0.103-0.19c-0.452-0.758-0.971-1.732-1.45-2.728l-0.105-0.243-0.133-0.284 0.133-0.284c0.584-1.239 1.102-2.212 1.658-3.161l-0.103 0.191c0.552-0.955 1.159-1.907 1.8-2.829l0.18-0.257 0.313-0.027c1.005-0.090 2.174-0.142 3.355-0.142s2.35 0.052 3.505 0.153l-0.15-0.011 0.312 0.027 0.179 0.257c1.177 1.666 2.294 3.567 3.252 5.56l0.104 0.24 0.135 0.284-0.135 0.284c-1.058 2.232-2.176 4.133-3.439 5.925l0.083-0.125-0.179 0.257-0.312 0.027c-1.129 0.093-2.259 0.141-3.356 0.141zM13.071 21.059c1.973 0.148 3.885 0.148 5.86 0 1.004-1.445 1.978-3.104 2.827-4.836l0.101-0.228c-0.947-1.958-1.922-3.617-3.012-5.19l0.083 0.126c-0.877-0.071-1.898-0.111-2.929-0.111s-2.052 0.040-3.063 0.119l0.134-0.008c-1.008 1.447-1.983 3.106-2.83 4.84l-0.099 0.224c0.951 1.96 1.926 3.619 3.014 5.193l-0.085-0.13z"></path>
</svg>

<symbol id="icon-codepen" viewBox="0 0 32 32">
<title>codepen</title>
<path d="M29.555 11.501l-14-9.333c-0.336-0.224-0.774-0.224-1.109 0l-14 9.333c-0.278 0.185-0.445 0.498-0.445 0.832v9.333c0 0.334 0.167 0.647 0.445 0.832l14 9.333c0.168 0.112 0.361 0.168 0.555 0.168s0.387-0.056 0.555-0.168l14-9.333c0.278-0.185 0.445-0.498 0.445-0.832v-9.333c0-0.334-0.167-0.647-0.445-0.832zM15 20.465l-5.197-3.465 5.197-3.465 5.197 3.465-5.197 3.465zM16 11.798v-6.93l11.197 7.465-5.197 3.465-6-4zM14 11.798l-6 4-5.197-3.465 11.197-7.465v6.93zM6.197 17l-4.197 2.798v-5.596l4.197 2.798zM8 18.202l6 4v6.93l-11.197-7.465 5.197-3.465zM16 22.202l6-4 5.197 3.465-11.197 7.465v-6.93zM23.803 17l4.197-2.798v5.596l-4.197-2.798z"></path>
</symbol>

<symbol id="icon-linkedin" viewBox="0 0 32 32">
<title>linkedin</title>
<path d="M29 0h-26c-1.65 0-3 1.35-3 3v26c0 1.65 1.35 3 3 3h26c1.65 0 3-1.35 3-3v-26c0-1.65-1.35-3-3-3zM12 26h-4v-14h4v14zM10 10c-1.106 0-2-0.894-2-2s0.894-2 2-2c1.106 0 2 0.894 2 2s-0.894 2-2 2zM26 26h-4v-8c0-1.106-0.894-2-2-2s-2 0.894-2 2v8h-4v-14h4v2.481c0.825-1.131 2.087-2.481 3.5-2.481 2.488 0 4.5 2.238 4.5 5v9z"></path>
</symbol>

<symbol id="icon-icomoon" viewBox="0 0 32 32">
<title>icomoon</title>
<path d="M8.111 16c0-2.044 1.657-3.701 3.701-3.701s3.701 1.657 3.701 3.701c0 2.044-1.657 3.701-3.701 3.701s-3.701-1.657-3.701-3.701zM16 0c-8.837 0-16 7.163-16 16s7.163 16 16 16c8.836 0 16-7.163 16-16s-7.163-16-16-16zM11.856 29.978c-4.811-2.799-8.046-8.010-8.046-13.978s3.235-11.178 8.046-13.978c4.813 2.799 8.050 8.009 8.050 13.978s-3.237 11.179-8.050 13.978z"></path>
</symbol>

<symbol id="icon-npm" viewBox="0 0 32 32">
<title>npm</title>
<path d="M0 9.779v10.667h8.888v1.776h7.112v-1.776h16v-10.667h-32zM8.888 18.664h-1.776v-5.333h-1.78v5.333h-3.552v-7.108h7.108v7.108zM14.221 18.664v1.781h-3.553v-8.889h7.112v7.109l-3.559-0.001zM30.223 18.664h-1.773v-5.333h-1.781v5.333h-1.78v-5.333h-1.773v5.333h-3.561v-7.108h10.669v7.108zM14.22 13.333h1.78v3.556h-1.78v-3.556z"></path>
</symbol>

<symbol id="icon-sass" viewBox="0 0 32 32">
<title>sass</title>
<path d="M16 0c8.836 0 16 7.164 16 16s-7.164 16-16 16-16-7.164-16-16 7.164-16 16-16zM12.82 21.331c0.233 0.86 0.208 1.664-0.032 2.389l-0.087 0.24c-0.032 0.081-0.069 0.16-0.104 0.235-0.187 0.387-0.435 0.747-0.74 1.080-0.931 1.012-2.229 1.396-2.787 1.073-0.6-0.349-0.301-1.78 0.779-2.92 1.161-1.224 2.827-2.012 2.827-2.012v-0.004l0.144-0.081zM26.035 6.849c-0.723-2.844-5.436-3.779-9.896-2.193-2.652 0.943-5.525 2.424-7.591 4.356-2.457 2.295-2.848 4.295-2.687 5.131 0.569 2.948 4.609 4.876 6.271 6.307v0.008c-0.489 0.24-4.075 2.039-4.915 3.9-0.9 1.96 0.14 3.361 0.82 3.54 2.1 0.581 4.26-0.48 5.42-2.199 1.12-1.681 1.021-3.841 0.539-4.901 0.661-0.18 1.44-0.26 2.44-0.139 2.801 0.32 3.361 2.080 3.24 2.8-0.12 0.719-0.697 1.139-0.899 1.259-0.2 0.121-0.26 0.16-0.241 0.241 0.020 0.12 0.121 0.12 0.28 0.1 0.22-0.040 1.461-0.6 1.521-1.961 0.060-1.72-1.581-3.639-4.5-3.6-1.2 0.021-1.961 0.121-2.5 0.341-0.040-0.060-0.081-0.1-0.14-0.14-1.8-1.94-5.14-3.3-5-5.88 0.040-0.94 0.38-3.419 6.4-6.419 4.94-2.461 8.881-1.78 9.561-0.28 0.977 2.139-2.101 6.12-7.241 6.699-1.96 0.22-2.98-0.539-3.241-0.82-0.279-0.3-0.319-0.32-0.419-0.259-0.16 0.080-0.060 0.34 0 0.5 0.16 0.4 0.78 1.1 1.861 1.46 0.939 0.3 3.24 0.479 6-0.6 3.099-1.199 5.519-4.54 4.819-7.34l0.097 0.089z"></path>
</symbol>

<symbol id="icon-news" viewBox="0 0 32 32">
<title>news</title>
<path d="M29 0h-22c-1.657 0-3 1.342-3 3v2h-1c-1.657 0-3 1.342-3 3v20c0 2.209 1.791 4 4 4h24c2.209 0 4-1.791 4-4v-25c0-1.658-1.344-3-3-3zM30 28c0 1.102-0.898 2-2 2h-24c-1.103 0-2-0.898-2-2v-20c0-0.552 0.448-1 1-1h1v20c0 0.553 0.447 1 1 1s1-0.447 1-1v-24c0-0.552 0.448-1 1-1h22c0.551 0 1 0.448 1 1v25zM19.498 13.005c-0.275 0-0.5-0.224-0.5-0.5s0.225-0.5 0.5-0.5h8c0.277 0 0.5 0.224 0.5 0.5s-0.223 0.5-0.5 0.5h-8zM19.498 10.005c-0.275 0-0.5-0.224-0.5-0.5s0.225-0.5 0.5-0.5h8c0.277 0 0.5 0.224 0.5 0.5s-0.223 0.5-0.5 0.5h-8zM19.498 7.005c-0.275 0-0.5-0.224-0.5-0.5s0.225-0.5 0.5-0.5h8c0.277 0 0.5 0.224 0.5 0.5s-0.223 0.5-0.5 0.5h-8zM16.5 27.004c0.276 0 0.5 0.225 0.5 0.5 0 0.277-0.225 0.5-0.5 0.5h-8c-0.276 0-0.5-0.223-0.5-0.5 0-0.275 0.224-0.5 0.5-0.5h8zM16.5 24.004c0.276 0 0.5 0.225 0.5 0.5 0 0.277-0.225 0.5-0.5 0.5h-8c-0.276 0-0.5-0.223-0.5-0.5 0-0.275 0.224-0.5 0.5-0.5h8zM16.5 21.004c0.276 0 0.5 0.225 0.5 0.5 0 0.277-0.225 0.5-0.5 0.5h-8c-0.276 0-0.5-0.223-0.5-0.5 0-0.275 0.224-0.5 0.5-0.5h8zM27.5 27.004c0.275 0 0.5 0.225 0.5 0.5 0 0.277-0.225 0.5-0.5 0.5h-8c-0.277 0-0.5-0.223-0.5-0.5 0-0.275 0.223-0.5 0.5-0.5h8zM27.5 24.004c0.275 0 0.5 0.225 0.5 0.5 0 0.277-0.225 0.5-0.5 0.5h-8c-0.277 0-0.5-0.223-0.5-0.5 0-0.275 0.223-0.5 0.5-0.5h8zM27.5 21.004c0.275 0 0.5 0.225 0.5 0.5 0 0.277-0.225 0.5-0.5 0.5h-8c-0.277 0-0.5-0.223-0.5-0.5 0-0.275 0.223-0.5 0.5-0.5h8zM27.5 15.004c0.275 0 0.5 0.224 0.5 0.5s-0.225 0.5-0.5 0.5h-19c-0.276 0-0.5-0.224-0.5-0.5s0.224-0.5 0.5-0.5h19zM27.5 18.004c0.275 0 0.5 0.225 0.5 0.5 0 0.277-0.225 0.5-0.5 0.5h-19c-0.276 0-0.5-0.223-0.5-0.5 0-0.275 0.224-0.5 0.5-0.5h19zM9 13h7c0.553 0 1-0.447 1-1v-6.996c0-0.553-0.447-1-1-1h-7c-0.553 0-1 0.447-1 1v6.996c0 0.552 0.447 1 1 1zM10 6h5v5h-5v-5z"></path>
</symbol>

<symbol id="icon-gmail" viewBox="0 0 32 32">
<title>gmail</title>
<path fill="#d14836" d="M32 6v20c0 1.133-0.867 2-2 2h-2v-18.151l-12 8.617-12-8.617v18.151h-2c-1.135 0-2-0.867-2-2v-20c0-0.567 0.216-1.067 0.575-1.424 0.359-0.363 0.86-0.576 1.425-0.576h0.667l13.333 9.667 13.333-9.667h0.667c0.567 0 1.067 0.216 1.425 0.576 0.36 0.357 0.575 0.857 0.575 1.424z"></path>
</symbol>

<symbol id="icon-contacts" viewBox="0 0 32 32">
<title>contacts</title>
<path d="M6 0v32h24v-32h-24zM18 8.010c2.203 0 3.99 1.786 3.99 3.99s-1.786 3.99-3.99 3.99-3.99-1.786-3.99-3.99 1.786-3.99 3.99-3.99v0zM24 24h-12v-2c0-2.209 1.791-4 4-4v0h4c2.209 0 4 1.791 4 4v2z"></path>
<path d="M2 2h3v6h-3v-6z"></path>
<path d="M2 10h3v6h-3v-6z"></path>
<path d="M2 18h3v6h-3v-6z"></path>
<path d="M2 26h3v6h-3v-6z"></path>
</symbol>

<symbol id="icon-drive" viewBox="0 0 50 50">
<title>drive</title>
<g>
<path style=" stroke:none;fill-rule:nonzero;fill:rgb(100%,75.686275%,2.745098%);fill-opacity:1;" d="M 17.707031 6.25 L 32.292969 6.25 L 46.875 31.25 L 32.292969 31.25 Z M 17.707031 6.25 "/>
<path style=" stroke:none;fill-rule:nonzero;fill:rgb(9.803922%,46.27451%,82.352941%);fill-opacity:1;" d="M 10.285156 43.75 L 17.644531 31.25 L 46.875 31.25 L 39.582031 43.75 Z M 10.285156 43.75 "/>
<path style=" stroke:none;fill-rule:nonzero;fill:rgb(29.803922%,68.627451%,31.372549%);fill-opacity:1;" d="M 3.125 31.378906 L 10.285156 43.75 L 25 18.75 L 17.707031 6.25 Z M 3.125 31.378906 "/>
</g>
</symbol>

<symbol id="icon-play-music" viewBox="0 0 50 50">
<title>play-music</title>
<g>
<path style=" stroke:none;fill-rule:nonzero;fill:rgb(100%,23.921569%,0%);fill-opacity:1;" d="M 22.710938 10.53125 L 10.609375 3.707031 C 9.914062 3.3125 9.355469 3.125 8.550781 3.125 C 7.171875 3.125 6.25 4.035156 6.25 5.632812 L 6.25 44.367188 C 6.25 45.964844 7.171875 46.875 8.550781 46.875 C 9.355469 46.875 9.914062 46.6875 10.609375 46.292969 L 20.355469 40.796875 L 20.390625 38.738281 L 39.035156 27.859375 L 41.261719 29.007812 L 44.164062 27.371094 C 45.089844 26.847656 45.832031 26.140625 45.832031 25 C 45.832031 23.859375 45.089844 23.152344 44.164062 22.625 L 40.308594 20.441406 Z M 22.710938 10.53125 "/>
<path style=" stroke:none;fill-rule:nonzero;fill:rgb(100%,83.921569%,0%);fill-opacity:1;" d="M 20.355469 40.796875 L 28.117188 36.421875 L 32.320312 34.050781 L 41.261719 29.007812 C 41.515625 27.882812 41.667969 26.722656 41.667969 25.519531 C 41.667969 16.605469 34.4375 9.375 25.519531 9.375 C 17.085938 9.375 10.164062 15.84375 9.4375 24.089844 C 9.394531 24.558594 9.375 25.039062 9.375 25.519531 C 9.375 32.628906 13.976562 38.640625 20.355469 40.796875 Z M 20.355469 40.796875 "/>
<path style=" stroke:none;fill-rule:nonzero;fill:rgb(100%,56.078431%,0%);fill-opacity:1;" d="M 25.519531 15.625 C 20.054688 15.625 15.625 20.054688 15.625 25.519531 C 15.625 30.984375 20.054688 35.417969 25.519531 35.417969 C 30.984375 35.417969 35.417969 30.984375 35.417969 25.519531 C 35.417969 20.054688 30.984375 15.625 25.519531 15.625 Z M 25.519531 15.625 "/>
<path style=" stroke:none;fill-rule:nonzero;fill:rgb(100%,100%,100%);fill-opacity:1;" d="M 25.363281 19.792969 L 25.363281 25.90625 C 25.015625 25.707031 24.617188 25.585938 24.191406 25.585938 C 22.898438 25.585938 21.875 26.628906 21.875 27.898438 C 21.875 29.191406 22.921875 30.210938 24.191406 30.210938 C 25.488281 30.210938 26.609375 29.164062 26.609375 27.898438 L 26.609375 22.277344 L 28.855469 22.277344 L 28.855469 19.792969 Z M 25.363281 19.792969 "/>
</g>
</symbol>


<symbol id="icon-google-plus" viewBox="0 0 32 32">
<title>google-plus</title>
<path fill="#dc4e41" d="M10.18 14.545v3.492h5.78c-0.231 1.5-1.747 4.393-5.775 4.393-3.472 0-6.308-2.88-6.308-6.431 0-3.549 2.829-6.429 6.304-6.429 1.98 0 3.305 0.844 4.060 1.571l2.764-2.659c-1.773-1.66-4.075-2.66-6.82-2.66-5.636-0.003-10.185 4.557-10.185 10.177s4.552 10.18 10.18 10.18c5.88 0 9.776-4.131 9.776-9.948 0-0.668-0.072-1.18-0.16-1.687h-9.616zM32 14.545h-2.911v-2.911h-2.911v2.911h-2.909v2.908h2.912v2.912h2.919v-2.912h2.9z"></path>
</symbol>

<symbol id="icon-google-chrome" viewBox="0 0 32 32">
<title>google-chrome</title>
<path fill="#4285f4" d="M21.619 11.587l8.953-2.239c0.902 1.943 1.428 4.217 1.428 6.615v0c0 8.797-7.241 16.037-16.043 16.037-0.403 0-0.807-0.015-1.209-0.045l6.54-11.129c0.475-0.501 0.873-1.071 1.175-1.695 0.44-0.909 0.697-1.978 0.697-3.106 0-1.175-0.279-2.284-0.774-3.266l0.019 0.042c-0.237-0.462-0.498-0.859-0.797-1.226l0.010 0.013zM17.299 23.020l-2.828 8.909c-8.153-0.803-14.471-7.743-14.471-15.96 0-3.18 0.945-6.289 2.717-8.931l6.445 11.169c0.24 0.719 1.492 3.441 4.089 4.436 1.331 0.509 2.721 0.641 4.047 0.376zM15.964 10.16c-2.675 0.025-5.171 2.059-5.708 4.683-0.070 0.344-0.11 0.739-0.11 1.143 0 1.654 0.673 3.151 1.76 4.233l0 0c1.619 1.581 4.187 2.104 6.312 1.236 1.877-0.768 3.293-2.569 3.588-4.575 0.363-2.475-1.051-5.109-3.327-6.172-0.727-0.346-1.58-0.548-2.48-0.548-0.012 0-0.024 0-0.037 0h0.002zM9.395 13.283l-6.383-6.665c2.952-4.029 7.666-6.615 12.984-6.617h0c6.080 0 11.659 3.456 14.365 8.9h-13.617c-2.415-0.167-4.384 0.693-5.687 1.937-0.702 0.675-1.265 1.489-1.645 2.398l-0.017 0.047z"></path>
</symbol>

<symbol id="icon-code" viewBox="0 0 50 50">
<title>code</title>
<g>
<path style=" stroke:none;fill-rule:nonzero;fill:rgb(36.470588%,73.72549%,61.568627%);fill-opacity:1;" d="M 42.644531 47.65625 L 7.355469 47.65625 C 6.660156 47.65625 6.308594 46.816406 6.800781 46.324219 L 10.804688 42.320312 C 11.390625 41.734375 12.183594 41.40625 13.011719 41.40625 L 36.984375 41.40625 C 37.816406 41.40625 38.609375 41.734375 39.195312 42.320312 L 43.195312 46.324219 C 43.691406 46.816406 43.339844 47.65625 42.644531 47.65625 Z M 42.644531 47.65625 "/>
<path style=" stroke:none;fill-rule:nonzero;fill:rgb(44.705882%,79.215686%,68.627451%);fill-opacity:1;" d="M 46.09375 38.28125 L 3.90625 38.28125 C 3.042969 38.28125 2.34375 37.582031 2.34375 36.71875 L 2.34375 5.46875 C 2.34375 4.605469 3.042969 3.90625 3.90625 3.90625 L 46.09375 3.90625 C 46.957031 3.90625 47.65625 4.605469 47.65625 5.46875 L 47.65625 36.71875 C 47.65625 37.582031 46.957031 38.28125 46.09375 38.28125 Z M 46.09375 38.28125 "/>
<path style=" stroke:none;fill-rule:nonzero;fill:rgb(77.254902%,89.411765%,98.039216%);fill-opacity:1;" d="M 7.03125 8.59375 L 42.96875 8.59375 L 42.96875 33.59375 L 7.03125 33.59375 Z M 7.03125 8.59375 "/>
<path style=" stroke:none;fill-rule:nonzero;fill:rgb(44.705882%,79.215686%,68.627451%);fill-opacity:1;" d="M 29.6875 44.53125 L 20.3125 44.53125 C 19.882812 44.53125 19.53125 44.179688 19.53125 43.75 L 19.53125 38.28125 L 30.46875 38.28125 L 30.46875 43.75 C 30.46875 44.179688 30.117188 44.53125 29.6875 44.53125 Z M 29.6875 44.53125 "/>
<path style=" stroke:none;fill-rule:nonzero;fill:rgb(36.470588%,73.72549%,61.568627%);fill-opacity:1;" d="M 19.53125 38.28125 L 30.46875 38.28125 L 30.46875 41.40625 L 19.53125 41.40625 Z M 19.53125 38.28125 "/>
<path style=" stroke:none;fill-rule:nonzero;fill:rgb(89.019608%,94.901961%,100%);fill-opacity:1;" d="M 29.632812 33.59375 L 43.75 19.476562 L 43.75 8.59375 L 42.074219 8.59375 L 17.074219 33.59375 Z M 8.707031 33.59375 L 13.726562 33.59375 L 38.726562 8.59375 L 33.707031 8.59375 Z M 30.359375 8.59375 L 7.8125 31.140625 L 7.8125 26.953125 L 26.171875 8.59375 Z M 30.359375 8.59375 "/>
<path style=" stroke:none;fill-rule:nonzero;fill:rgb(55.294118%,42.352941%,62.352941%);fill-opacity:1;" d="M 46.09375 3.125 L 3.90625 3.125 C 2.613281 3.125 1.5625 4.175781 1.5625 5.46875 L 1.5625 36.71875 C 1.5625 38.011719 2.613281 39.0625 3.90625 39.0625 L 18.75 39.0625 L 18.75 40.625 L 13.015625 40.625 C 11.96875 40.625 10.992188 41.03125 10.25 41.765625 L 6.25 45.773438 C 5.804688 46.21875 5.671875 46.890625 5.914062 47.476562 C 6.15625 48.0625 6.71875 48.4375 7.351562 48.4375 L 42.648438 48.4375 C 43.28125 48.4375 43.84375 48.0625 44.085938 47.476562 C 44.328125 46.890625 44.195312 46.21875 43.75 45.773438 L 39.75 41.765625 C 39.007812 41.03125 38.03125 40.625 36.984375 40.625 L 31.25 40.625 L 31.25 39.0625 L 46.09375 39.0625 C 47.386719 39.0625 48.4375 38.011719 48.4375 36.71875 L 48.4375 5.46875 C 48.4375 4.175781 47.386719 3.125 46.09375 3.125 Z M 36.984375 42.1875 C 37.601562 42.1875 38.210938 42.4375 38.640625 42.875 L 42.648438 46.875 L 7.351562 46.875 L 11.359375 42.875 C 11.789062 42.4375 12.398438 42.1875 13.015625 42.1875 L 18.75 42.1875 L 18.75 43.75 C 18.75 44.609375 19.453125 45.3125 20.3125 45.3125 L 29.6875 45.3125 C 30.546875 45.3125 31.25 44.609375 31.25 43.75 L 31.25 42.1875 Z M 29.6875 40.625 L 29.6875 43.75 L 20.3125 43.75 L 20.3125 39.0625 L 29.6875 39.0625 Z M 46.875 36.71875 C 46.875 37.148438 46.523438 37.5 46.09375 37.5 L 3.90625 37.5 C 3.476562 37.5 3.125 37.148438 3.125 36.71875 L 3.125 5.46875 C 3.125 5.039062 3.476562 4.6875 3.90625 4.6875 L 46.09375 4.6875 C 46.523438 4.6875 46.875 5.039062 46.875 5.46875 Z M 46.875 36.71875 "/>
<path style=" stroke:none;fill-rule:nonzero;fill:rgb(55.294118%,42.352941%,62.352941%);fill-opacity:1;" d="M 42.96875 7.8125 L 7.03125 7.8125 C 6.601562 7.8125 6.25 8.160156 6.25 8.59375 L 6.25 33.59375 C 6.25 34.027344 6.601562 34.375 7.03125 34.375 L 42.96875 34.375 C 43.398438 34.375 43.75 34.027344 43.75 33.59375 L 43.75 8.59375 C 43.75 8.160156 43.398438 7.8125 42.96875 7.8125 Z M 42.1875 32.8125 L 7.8125 32.8125 L 7.8125 9.375 L 42.1875 9.375 Z M 42.1875 32.8125 "/>
<path style=" stroke:none;fill-rule:nonzero;fill:rgb(55.294118%,42.352941%,62.352941%);fill-opacity:1;" d="M 13.28125 28.125 C 12.851562 28.125 12.5 28.472656 12.5 28.90625 L 12.5 30.46875 C 12.5 30.902344 12.851562 31.25 13.28125 31.25 C 13.710938 31.25 14.0625 30.902344 14.0625 30.46875 L 14.0625 28.90625 C 14.0625 28.472656 13.710938 28.125 13.28125 28.125 Z M 9.375 31.25 C 9.804688 31.25 10.15625 30.902344 10.15625 30.46875 L 10.15625 28.90625 C 10.15625 28.472656 9.804688 28.125 9.375 28.125 C 8.945312 28.125 8.59375 28.472656 8.59375 28.90625 L 8.59375 30.46875 C 8.59375 30.902344 8.945312 31.25 9.375 31.25 Z M 17.1875 28.125 C 16.757812 28.125 16.40625 28.472656 16.40625 28.90625 L 16.40625 30.46875 C 16.40625 30.902344 16.757812 31.25 17.1875 31.25 C 17.617188 31.25 17.96875 30.902344 17.96875 30.46875 L 17.96875 28.90625 C 17.96875 28.472656 17.617188 28.125 17.1875 28.125 Z M 21.09375 31.25 C 21.523438 31.25 21.875 30.902344 21.875 30.46875 L 21.875 28.90625 C 21.875 28.472656 21.523438 28.125 21.09375 28.125 C 20.664062 28.125 20.3125 28.472656 20.3125 28.90625 L 20.3125 30.46875 C 20.3125 30.902344 20.664062 31.25 21.09375 31.25 Z M 25 31.25 C 25.429688 31.25 25.78125 30.902344 25.78125 30.46875 L 25.78125 28.90625 C 25.78125 28.472656 25.429688 28.125 25 28.125 C 24.570312 28.125 24.21875 28.472656 24.21875 28.90625 L 24.21875 30.46875 C 24.21875 30.902344 24.570312 31.25 25 31.25 Z M 32.8125 28.125 C 32.382812 28.125 32.03125 28.472656 32.03125 28.90625 L 32.03125 30.46875 C 32.03125 30.902344 32.382812 31.25 32.8125 31.25 C 33.242188 31.25 33.59375 30.902344 33.59375 30.46875 L 33.59375 28.90625 C 33.59375 28.472656 33.242188 28.125 32.8125 28.125 Z M 28.90625 31.25 C 29.335938 31.25 29.6875 30.902344 29.6875 30.46875 L 29.6875 28.90625 C 29.6875 28.472656 29.335938 28.125 28.90625 28.125 C 28.476562 28.125 28.125 28.472656 28.125 28.90625 L 28.125 30.46875 C 28.125 30.902344 28.476562 31.25 28.90625 31.25 Z M 36.71875 28.125 C 36.289062 28.125 35.9375 28.472656 35.9375 28.90625 L 35.9375 30.46875 C 35.9375 30.902344 36.289062 31.25 36.71875 31.25 C 37.148438 31.25 37.5 30.902344 37.5 30.46875 L 37.5 28.90625 C 37.5 28.472656 37.148438 28.125 36.71875 28.125 Z M 40.625 31.25 C 41.054688 31.25 41.40625 30.902344 41.40625 30.46875 L 41.40625 28.90625 C 41.40625 28.472656 41.054688 28.125 40.625 28.125 C 40.195312 28.125 39.84375 28.472656 39.84375 28.90625 L 39.84375 30.46875 C 39.84375 30.902344 40.195312 31.25 40.625 31.25 Z M 30.699219 26.332031 C 30.851562 26.484375 31.050781 26.5625 31.25 26.5625 C 31.449219 26.5625 31.648438 26.484375 31.800781 26.332031 L 38.050781 20.082031 C 38.359375 19.777344 38.359375 19.285156 38.050781 18.980469 L 31.800781 12.730469 C 31.496094 12.421875 31.003906 12.421875 30.699219 12.730469 C 30.390625 13.035156 30.390625 13.527344 30.699219 13.832031 L 36.394531 19.53125 L 30.699219 25.230469 C 30.390625 25.535156 30.390625 26.027344 30.699219 26.332031 Z M 18.199219 26.332031 C 18.351562 26.484375 18.550781 26.5625 18.75 26.5625 C 18.949219 26.5625 19.148438 26.484375 19.300781 26.332031 C 19.609375 26.027344 19.609375 25.535156 19.300781 25.230469 L 13.605469 19.53125 L 19.300781 13.832031 C 19.609375 13.527344 19.609375 13.035156 19.300781 12.730469 C 18.996094 12.421875 18.503906 12.421875 18.199219 12.730469 L 11.949219 18.980469 C 11.640625 19.285156 11.640625 19.777344 11.949219 20.082031 Z M 18.199219 26.332031 "/>
<path style=" stroke:none;fill-rule:nonzero;fill:rgb(100%,97.254902%,97.254902%);fill-opacity:1;" d="M 20.703125 14.839844 L 21.671875 16.609375 L 23.441406 17.578125 L 21.671875 18.542969 L 20.703125 20.3125 L 19.738281 18.542969 L 17.96875 17.578125 L 19.738281 16.609375 Z M 37.828125 11.84375 L 38.496094 13.066406 L 39.71875 13.734375 L 38.496094 14.402344 L 37.828125 15.625 L 37.160156 14.402344 L 35.9375 13.734375 L 37.160156 13.066406 Z M 27.070312 25.550781 L 27.523438 26.382812 L 28.355469 26.835938 L 27.523438 27.292969 L 27.070312 28.125 L 26.613281 27.292969 L 25.78125 26.835938 L 26.613281 26.382812 Z M 27.070312 25.550781 "/>
</g>
</symbol>

<symbol id="icon-calendar" viewBox="0 0 50 50">
<title>calendar</title>
<g>
<path style=" stroke:none;fill-rule:evenodd;fill:rgb(78.039216%,78.039216%,78.039216%);fill-opacity:1;" d="M 39.582031 5.207031 C 33.019531 5.207031 16.980469 5.207031 10.417969 5.207031 C 9.265625 5.207031 8.332031 6.140625 8.332031 7.292969 C 8.332031 10.464844 8.332031 10.417969 8.332031 10.417969 L 41.667969 10.417969 C 41.667969 10.417969 41.667969 10.464844 41.667969 7.292969 C 41.667969 6.140625 40.734375 5.207031 39.582031 5.207031 Z M 14.582031 8.332031 C 14.007812 8.332031 13.542969 7.867188 13.542969 7.292969 C 13.542969 6.714844 14.007812 6.25 14.582031 6.25 C 15.160156 6.25 15.625 6.714844 15.625 7.292969 C 15.625 7.867188 15.160156 8.332031 14.582031 8.332031 Z M 35.417969 8.332031 C 34.839844 8.332031 34.375 7.867188 34.375 7.292969 C 34.375 6.714844 34.839844 6.25 35.417969 6.25 C 35.992188 6.25 36.457031 6.714844 36.457031 7.292969 C 36.457031 7.867188 35.992188 8.332031 35.417969 8.332031 Z M 35.417969 8.332031 "/>
<path style=" stroke:none;fill-rule:evenodd;fill:rgb(9.803922%,46.27451%,82.352941%);fill-opacity:1;" d="M 45.832031 11.457031 C 45.941406 10.851562 44.367188 9.375 43.75 9.375 C 36.34375 9.375 13.65625 9.375 6.25 9.375 C 5.207031 9.375 4.058594 10.851562 4.167969 11.457031 C 5.023438 16.316406 7.292969 27.082031 7.292969 27.082031 L 42.707031 27.082031 C 42.707031 27.082031 44.976562 16.316406 45.832031 11.457031 Z M 45.832031 11.457031 "/>
<path style=" stroke:none;fill-rule:evenodd;fill:rgb(11.764706%,53.333333%,89.803922%);fill-opacity:1;" d="M 42.707031 27.082031 L 7.292969 27.082031 C 7.292969 27.082031 5.023438 37.851562 4.167969 42.707031 C 4.167969 43.902344 4.992188 44.792969 6.25 44.792969 C 13.65625 44.792969 36.34375 44.792969 43.75 44.792969 C 44.367188 44.792969 45.832031 44.269531 45.832031 42.707031 C 44.976562 37.851562 42.707031 27.082031 42.707031 27.082031 Z M 42.707031 27.082031 "/>
<path style=" stroke:none;fill-rule:evenodd;fill:rgb(98.039216%,98.039216%,98.039216%);fill-opacity:1;" d="M 21.390625 27.082031 C 22.414062 27.421875 23.148438 27.96875 23.582031 28.707031 C 24.035156 29.46875 24.257812 30.320312 24.257812 31.265625 C 24.257812 32.914062 23.71875 34.207031 22.636719 35.152344 C 21.558594 36.097656 20.175781 36.570312 18.496094 36.570312 C 16.847656 36.570312 15.484375 36.125 14.402344 35.234375 C 13.320312 34.34375 12.800781 33.136719 12.84375 31.613281 L 12.878906 31.539062 L 15.214844 31.539062 C 15.214844 32.492188 15.507812 33.25 16.089844 33.8125 C 16.675781 34.375 17.476562 34.65625 18.496094 34.65625 C 19.53125 34.65625 20.34375 34.375 20.929688 33.8125 C 21.519531 33.246094 21.8125 32.414062 21.8125 31.316406 C 21.8125 30.195312 21.550781 29.371094 21.03125 28.84375 C 20.507812 28.3125 19.683594 28.046875 18.558594 28.046875 L 16.421875 28.046875 L 16.421875 27.082031 Z M 32.957031 27.082031 L 35.402344 27.082031 L 35.402344 36.308594 L 32.957031 36.308594 Z M 32.957031 27.082031 "/>
<path style=" stroke:none;fill-rule:evenodd;fill:rgb(87.843137%,87.843137%,87.843137%);fill-opacity:1;" d="M 15.339844 22.953125 L 12.992188 22.953125 L 12.96875 22.878906 C 12.925781 21.511719 13.421875 20.351562 14.453125 19.394531 C 15.484375 18.4375 16.832031 17.960938 18.496094 17.960938 C 20.167969 17.960938 21.503906 18.40625 22.496094 19.296875 C 23.488281 20.1875 23.988281 21.457031 23.988281 23.101562 C 23.988281 23.847656 23.761719 24.589844 23.308594 25.332031 C 22.859375 26.074219 22.179688 26.640625 21.277344 27.027344 L 21.390625 27.082031 L 16.421875 27.082031 L 16.421875 26.132812 L 18.558594 26.132812 C 19.644531 26.132812 20.410156 25.863281 20.863281 25.320312 C 21.3125 24.777344 21.539062 24.023438 21.539062 23.054688 C 21.539062 22.019531 21.28125 21.230469 20.769531 20.695312 C 20.253906 20.15625 19.496094 19.886719 18.496094 19.886719 C 17.542969 19.886719 16.777344 20.164062 16.203125 20.726562 C 15.648438 21.265625 15.359375 21.976562 15.339844 22.953125 Z M 35.402344 27.082031 L 32.957031 27.082031 L 32.957031 20.605469 L 29.253906 20.65625 L 29.253906 18.890625 L 35.402344 18.222656 Z M 35.402344 27.082031 "/>
<path style=" stroke:none;fill-rule:evenodd;fill:rgb(9.803922%,46.27451%,82.352941%);fill-opacity:1;" d="M 6.25 9.375 C 4.753906 9.375 4.058594 10.851562 4.167969 11.457031 C 5.023438 16.316406 7.292969 27.082031 7.292969 27.082031 M 42.707031 27.082031 C 42.707031 27.082031 44.976562 16.316406 45.832031 11.457031 C 45.832031 9.765625 44.367188 9.375 43.75 9.375 "/>
</g>
</symbol>

<symbol id="icon-google-translate" viewBox="0 0 64 64">
<title>google-translate</title>
<path fill="#c2cde7" d="M59,20v36c0,1.66-1.34,3-3,3H33L21,17h35C57.66,17,59,18.34,59,20z"/>
<path fill="#85cbf8" d="M43,47H8c-1.66,0-3-1.34-3-3V8c0-1.66,1.34-3,3-3h21.49c0.89,0,1.68,0.59,1.92,1.45L32.42,10L43,47z"/>
<path fill="#acb7d0" d="M42 47L29.735 47.029 33 58 43 47z"/>
<path fill="#acb7d0" d="M59,57.63L59,57.63c0,0.757-0.614,1.37-1.37,1.37H35v-5h20.37C57.375,54,59,55.625,59,57.63z"/>
<path fill="#9fddff" d="M32.42,10H8.827C6.713,10,5,8.287,5,6.173v0C5,5.525,5.525,5,6.173,5H29.49 c0.89,0,1.68,0.59,1.92,1.45L32.42,10z"/>
<path fill="#8d6c9f" d="M56,16H35.18l-2.8-9.82C32.01,4.89,30.82,4,29.49,4H8C5.79,4,4,5.79,4,8v36c0,2.21,1.79,4,4,4 h20.82l3.22,11.27c0.01,0.034,0.031,0.061,0.044,0.094c0.02,0.05,0.039,0.097,0.067,0.143c0.043,0.073,0.097,0.135,0.156,0.194 c0.021,0.021,0.031,0.048,0.053,0.067c0.006,0.005,0.014,0.007,0.021,0.012c0.066,0.053,0.142,0.091,0.22,0.126 c0.024,0.011,0.046,0.029,0.071,0.038c0.099,0.035,0.205,0.053,0.315,0.054C32.991,59.998,32.995,60,33,60l0,0l0,0h23 c2.21,0,4-1.79,4-4V20C60,17.79,58.21,16,56,16z M28.25,46H8c-1.1,0-2-0.9-2-2V8c0-1.1,0.9-2,2-2h21.49c0.45,0,0.84,0.3,0.96,0.73 L33.1,16l0.57,2l8,28H30.32H28.25z M40.865,48l-7.426,8.911L30.9,48H40.865z M58,56c0,1.1-0.9,2-2,2H35.135L38,54.562V55 c0,0.552,0.448,1,1,1s1-0.448,1-1v-2c0-0.223-0.087-0.419-0.211-0.585l3.979-4.775c0.006-0.008,0.007-0.017,0.013-0.025 c0.005-0.006,0.014-0.009,0.018-0.015c0.024-0.032,0.027-0.072,0.047-0.106c0.049-0.084,0.093-0.168,0.116-0.26 c0.013-0.053,0.012-0.105,0.016-0.159c0.007-0.094,0.004-0.183-0.015-0.275c-0.005-0.023,0.003-0.047-0.004-0.07l-1.27-4.449 c1.026-0.593,1.973-1.302,2.824-2.093c2.15,2.201,4.957,3.782,7.474,3.782c0.552,0,1-0.448,1-1s-0.448-1-1-1 c-1.995,0-4.321-1.368-6.11-3.22c1.938-2.323,3.11-5.105,3.11-7.78v-1h3c0.552,0,1-0.448,1-1s-0.448-1-1-1h-7v-2 c0-0.552-0.448-1-1-1s-1,0.448-1,1v2h-3c-0.552,0-1,0.448-1,1s0.448,1,1,1h7v1c0,2.233-0.984,4.394-2.418,6.195 c-0.961-1.374-1.582-2.858-1.582-4.195c0-0.552-0.448-1-1-1s-1,0.448-1,1c0,1.865,0.868,3.891,2.212,5.69 c-0.657,0.62-1.362,1.163-2.081,1.622L35.76,18H56c1.1,0,2,0.9,2,2V56z"/>
<path fill="#fff" d="M22.335,18.65c-0.137-0.406-0.518-0.68-0.947-0.68s-0.81,0.274-0.947,0.68l-5.4,16 c-0.177,0.523,0.104,1.091,0.627,1.267c0.522,0.178,1.091-0.105,1.267-0.627l1.806-5.35c0.05,0.008,0.095,0.03,0.147,0.03h5 c0.052,0,0.097-0.022,0.147-0.03l1.806,5.35c0.141,0.417,0.53,0.681,0.947,0.681c0.106,0,0.214-0.017,0.32-0.053 c0.523-0.176,0.804-0.744,0.627-1.267L22.335,18.65z M19.406,27.97l1.982-5.873l1.982,5.873H19.406z"/>
<path fill="#8d6c9f" d="M9 8C8.448 8 8 8.448 8 9v2c0 .552.448 1 1 1s1-.448 1-1V9C10 8.448 9.552 8 9 8zM15 9c0-.552-.448-1-1-1s-1 .448-1 1v2c0 .552.448 1 1 1s1-.448 1-1V9zM19 12c.552 0 1-.448 1-1V9c0-.552-.448-1-1-1s-1 .448-1 1v2C18 11.552 18.448 12 19 12zM24 12c.552 0 1-.448 1-1V9c0-.552-.448-1-1-1s-1 .448-1 1v2C23 11.552 23.448 12 24 12zM29 8c-.552 0-1 .448-1 1v2c0 .552.448 1 1 1s1-.448 1-1V9C30 8.448 29.552 8 29 8zM44 52c-.552 0-1 .448-1 1v2c0 .552.448 1 1 1s1-.448 1-1v-2C45 52.448 44.552 52 44 52zM49 52c-.552 0-1 .448-1 1v2c0 .552.448 1 1 1s1-.448 1-1v-2C50 52.448 49.552 52 49 52zM54 52c-.552 0-1 .448-1 1v2c0 .552.448 1 1 1s1-.448 1-1v-2C55 52.448 54.552 52 54 52z"/>
</symbol>


</defs>
</svg>


