<?xml version="1.0" encoding="UTF-8"?>
<svg xmlns="http://www.w3.org/2000/svg" xmlns:xlink="http://www.w3.org/1999/xlink" width="50px" height="50px" viewBox="0 0 50 50" version="1.1">
<defs>
<linearGradient id="linear0" gradientUnits="userSpaceOnUse" x1="21" y1="25" x2="21" y2="33" spreadMethod="reflect" gradientTransform="matrix(0.78125,0,0,0.78125,0,0)">
<stop offset="0" style="stop-color:rgb(42.745098%,78.039216%,100%);stop-opacity:1;"/>
<stop offset="1" style="stop-color:rgb(90.196078%,67.058824%,100%);stop-opacity:1;"/>
</linearGradient>
<linearGradient id="linear1" gradientUnits="userSpaceOnUse" x1="43" y1="25" x2="43" y2="33" spreadMethod="reflect" gradientTransform="matrix(0.78125,0,0,0.78125,0,0)">
<stop offset="0" style="stop-color:rgb(42.745098%,78.039216%,100%);stop-opacity:1;"/>
<stop offset="1" style="stop-color:rgb(90.196078%,67.058824%,100%);stop-opacity:1;"/>
</linearGradient>
<linearGradient id="linear2" gradientUnits="userSpaceOnUse" x1="44.275" y1="33" x2="44.275" y2="39" spreadMethod="reflect" gradientTransform="matrix(0.78125,0,0,0.78125,0,0)">
<stop offset="0" style="stop-color:rgb(42.745098%,78.039216%,100%);stop-opacity:1;"/>
<stop offset="1" style="stop-color:rgb(90.196078%,67.058824%,100%);stop-opacity:1;"/>
</linearGradient>
<linearGradient id="linear3" gradientUnits="userSpaceOnUse" x1="19.725" y1="33" x2="19.725" y2="39" spreadMethod="reflect" gradientTransform="matrix(0.78125,0,0,0.78125,0,0)">
<stop offset="0" style="stop-color:rgb(42.745098%,78.039216%,100%);stop-opacity:1;"/>
<stop offset="1" style="stop-color:rgb(90.196078%,67.058824%,100%);stop-opacity:1;"/>
</linearGradient>
<linearGradient id="linear4" gradientUnits="userSpaceOnUse" x1="32" y1="11" x2="32" y2="61.883" spreadMethod="reflect" gradientTransform="matrix(0.78125,0,0,0.78125,0,0)">
<stop offset="0" style="stop-color:rgb(10.196078%,42.745098%,100%);stop-opacity:1;"/>
<stop offset="1" style="stop-color:rgb(78.431373%,13.333333%,100%);stop-opacity:1;"/>
</linearGradient>
<linearGradient id="linear5" gradientUnits="userSpaceOnUse" x1="32" y1="11" x2="32" y2="61.883" spreadMethod="reflect" gradientTransform="matrix(0.78125,0,0,0.78125,0,0)">
<stop offset="0" style="stop-color:rgb(10.196078%,42.745098%,100%);stop-opacity:1;"/>
<stop offset="1" style="stop-color:rgb(78.431373%,13.333333%,100%);stop-opacity:1;"/>
</linearGradient>
<linearGradient id="linear6" gradientUnits="userSpaceOnUse" x1="32" y1="11" x2="32" y2="61.883" spreadMethod="reflect" gradientTransform="matrix(0.78125,0,0,0.78125,0,0)">
<stop offset="0" style="stop-color:rgb(10.196078%,42.745098%,100%);stop-opacity:1;"/>
<stop offset="1" style="stop-color:rgb(78.431373%,13.333333%,100%);stop-opacity:1;"/>
</linearGradient>
</defs>
<g id="surface50064">
<path style=" stroke:none;fill-rule:nonzero;fill:url(#linear0);" d="M 16.40625 19.53125 C 14.679688 19.53125 13.28125 20.929688 13.28125 22.65625 C 13.28125 24.382812 14.679688 25.78125 16.40625 25.78125 C 18.132812 25.78125 19.53125 24.382812 19.53125 22.65625 C 19.53125 20.929688 18.132812 19.53125 16.40625 19.53125 Z M 16.40625 19.53125 "/>
<path style=" stroke:none;fill-rule:nonzero;fill:url(#linear1);" d="M 33.59375 19.53125 C 31.867188 19.53125 30.46875 20.929688 30.46875 22.65625 C 30.46875 24.382812 31.867188 25.78125 33.59375 25.78125 C 35.320312 25.78125 36.71875 24.382812 36.71875 22.65625 C 36.71875 20.929688 35.320312 19.53125 33.59375 19.53125 Z M 33.59375 19.53125 "/>
<path style=" stroke:none;fill-rule:nonzero;fill:url(#linear2);" d="M 38.28125 28.984375 L 38.28125 30.46875 L 32.03125 30.46875 L 32.03125 28.59375 C 32.03125 28.523438 32.023438 28.445312 32.015625 28.367188 C 32.007812 28.320312 32 28.273438 31.992188 28.226562 C 31.984375 28.171875 31.96875 28.109375 31.945312 28.046875 C 31.914062 27.921875 31.867188 27.796875 31.8125 27.664062 C 31.625 27.242188 31.328125 26.789062 30.898438 26.351562 C 31.703125 25.976562 32.617188 25.78125 33.59375 25.78125 C 36.90625 25.78125 38.28125 27.867188 38.28125 28.984375 Z M 38.28125 28.984375 "/>
<path style=" stroke:none;fill-rule:nonzero;fill:url(#linear3);" d="M 19.101562 26.351562 C 18.671875 26.789062 18.375 27.242188 18.1875 27.664062 C 18.132812 27.796875 18.085938 27.921875 18.054688 28.046875 C 18.03125 28.109375 18.015625 28.171875 18.007812 28.226562 C 18 28.273438 17.992188 28.320312 17.984375 28.367188 C 17.976562 28.445312 17.96875 28.523438 17.96875 28.59375 L 17.96875 30.46875 L 11.71875 30.46875 L 11.71875 28.984375 C 11.71875 27.867188 13.09375 25.78125 16.40625 25.78125 C 17.382812 25.78125 18.296875 25.976562 19.101562 26.351562 Z M 19.101562 26.351562 "/>
<path style=" stroke:none;fill-rule:nonzero;fill:url(#linear4);" d="M 25 22.65625 C 22.847656 22.65625 21.09375 20.902344 21.09375 18.75 C 21.09375 16.597656 22.847656 14.84375 25 14.84375 C 27.152344 14.84375 28.90625 16.597656 28.90625 18.75 C 28.90625 20.902344 27.152344 22.65625 25 22.65625 Z M 25 16.40625 C 23.707031 16.40625 22.65625 17.457031 22.65625 18.75 C 22.65625 20.042969 23.707031 21.09375 25 21.09375 C 26.292969 21.09375 27.34375 20.042969 27.34375 18.75 C 27.34375 17.457031 26.292969 16.40625 25 16.40625 Z M 25 16.40625 "/>
<path style=" stroke:none;fill-rule:nonzero;fill:url(#linear5);" d="M 32.03125 30.46875 L 17.96875 30.46875 L 17.96875 28.59375 C 17.96875 27.117188 20.09375 24.21875 25 24.21875 C 29.90625 24.21875 32.03125 27.117188 32.03125 28.59375 Z M 19.53125 28.90625 L 30.46875 28.90625 L 30.46875 28.59375 C 30.464844 28.257812 29.300781 25.78125 25 25.78125 C 20.699219 25.78125 19.535156 28.257812 19.53125 28.59375 Z M 19.53125 28.90625 "/>
<path style=" stroke:none;fill-rule:nonzero;fill:url(#linear6);" d="M 42.96875 48.574219 L 30.960938 38.28125 L 7.03125 38.28125 L 7.03125 8.59375 L 42.96875 8.59375 Z M 8.59375 36.71875 L 31.539062 36.71875 L 41.40625 45.175781 L 41.40625 10.15625 L 8.59375 10.15625 Z M 8.59375 36.71875 "/>
</g>
</svg>
