<?xml version="1.0" encoding="UTF-8"?>
<svg xmlns="http://www.w3.org/2000/svg" xmlns:xlink="http://www.w3.org/1999/xlink" width="50px" height="50px" viewBox="0 0 50 50" version="1.1">
<g id="surface50060">
<path style=" stroke:none;fill-rule:nonzero;fill:rgb(100%,23.921569%,0%);fill-opacity:1;" d="M 22.710938 10.53125 L 10.609375 3.707031 C 9.914062 3.3125 9.355469 3.125 8.550781 3.125 C 7.171875 3.125 6.25 4.035156 6.25 5.632812 L 6.25 44.367188 C 6.25 45.964844 7.171875 46.875 8.550781 46.875 C 9.355469 46.875 9.914062 46.6875 10.609375 46.292969 L 20.355469 40.796875 L 20.390625 38.738281 L 39.035156 27.859375 L 41.261719 29.007812 L 44.164062 27.371094 C 45.089844 26.847656 45.832031 26.140625 45.832031 25 C 45.832031 23.859375 45.089844 23.152344 44.164062 22.625 L 40.308594 20.441406 Z M 22.710938 10.53125 "/>
<path style=" stroke:none;fill-rule:nonzero;fill:rgb(100%,83.921569%,0%);fill-opacity:1;" d="M 20.355469 40.796875 L 28.117188 36.421875 L 32.320312 34.050781 L 41.261719 29.007812 C 41.515625 27.882812 41.667969 26.722656 41.667969 25.519531 C 41.667969 16.605469 34.4375 9.375 25.519531 9.375 C 17.085938 9.375 10.164062 15.84375 9.4375 24.089844 C 9.394531 24.558594 9.375 25.039062 9.375 25.519531 C 9.375 32.628906 13.976562 38.640625 20.355469 40.796875 Z M 20.355469 40.796875 "/>
<path style=" stroke:none;fill-rule:nonzero;fill:rgb(100%,56.078431%,0%);fill-opacity:1;" d="M 25.519531 15.625 C 20.054688 15.625 15.625 20.054688 15.625 25.519531 C 15.625 30.984375 20.054688 35.417969 25.519531 35.417969 C 30.984375 35.417969 35.417969 30.984375 35.417969 25.519531 C 35.417969 20.054688 30.984375 15.625 25.519531 15.625 Z M 25.519531 15.625 "/>
<path style=" stroke:none;fill-rule:nonzero;fill:rgb(100%,100%,100%);fill-opacity:1;" d="M 25.363281 19.792969 L 25.363281 25.90625 C 25.015625 25.707031 24.617188 25.585938 24.191406 25.585938 C 22.898438 25.585938 21.875 26.628906 21.875 27.898438 C 21.875 29.191406 22.921875 30.210938 24.191406 30.210938 C 25.488281 30.210938 26.609375 29.164062 26.609375 27.898438 L 26.609375 22.277344 L 28.855469 22.277344 L 28.855469 19.792969 Z M 25.363281 19.792969 "/>
</g>
</svg>
