<?xml version="1.0" encoding="UTF-8"?>
<svg xmlns="http://www.w3.org/2000/svg" xmlns:xlink="http://www.w3.org/1999/xlink" width="50px" height="50px" viewBox="0 0 50 50" version="1.1">
<g id="surface216705">
<path style=" stroke:none;fill-rule:nonzero;fill:rgb(36.470588%,73.72549%,61.568627%);fill-opacity:1;" d="M 42.644531 47.65625 L 7.355469 47.65625 C 6.660156 47.65625 6.308594 46.816406 6.800781 46.324219 L 10.804688 42.320312 C 11.390625 41.734375 12.183594 41.40625 13.011719 41.40625 L 36.984375 41.40625 C 37.816406 41.40625 38.609375 41.734375 39.195312 42.320312 L 43.195312 46.324219 C 43.691406 46.816406 43.339844 47.65625 42.644531 47.65625 Z M 42.644531 47.65625 "/>
<path style=" stroke:none;fill-rule:nonzero;fill:rgb(44.705882%,79.215686%,68.627451%);fill-opacity:1;" d="M 46.09375 38.28125 L 3.90625 38.28125 C 3.042969 38.28125 2.34375 37.582031 2.34375 36.71875 L 2.34375 5.46875 C 2.34375 4.605469 3.042969 3.90625 3.90625 3.90625 L 46.09375 3.90625 C 46.957031 3.90625 47.65625 4.605469 47.65625 5.46875 L 47.65625 36.71875 C 47.65625 37.582031 46.957031 38.28125 46.09375 38.28125 Z M 46.09375 38.28125 "/>
<path style=" stroke:none;fill-rule:nonzero;fill:rgb(77.254902%,89.411765%,98.039216%);fill-opacity:1;" d="M 7.03125 8.59375 L 42.96875 8.59375 L 42.96875 33.59375 L 7.03125 33.59375 Z M 7.03125 8.59375 "/>
<path style=" stroke:none;fill-rule:nonzero;fill:rgb(44.705882%,79.215686%,68.627451%);fill-opacity:1;" d="M 29.6875 44.53125 L 20.3125 44.53125 C 19.882812 44.53125 19.53125 44.179688 19.53125 43.75 L 19.53125 38.28125 L 30.46875 38.28125 L 30.46875 43.75 C 30.46875 44.179688 30.117188 44.53125 29.6875 44.53125 Z M 29.6875 44.53125 "/>
<path style=" stroke:none;fill-rule:nonzero;fill:rgb(36.470588%,73.72549%,61.568627%);fill-opacity:1;" d="M 19.53125 38.28125 L 30.46875 38.28125 L 30.46875 41.40625 L 19.53125 41.40625 Z M 19.53125 38.28125 "/>
<path style=" stroke:none;fill-rule:nonzero;fill:rgb(89.019608%,94.901961%,100%);fill-opacity:1;" d="M 29.632812 33.59375 L 43.75 19.476562 L 43.75 8.59375 L 42.074219 8.59375 L 17.074219 33.59375 Z M 8.707031 33.59375 L 13.726562 33.59375 L 38.726562 8.59375 L 33.707031 8.59375 Z M 30.359375 8.59375 L 7.8125 31.140625 L 7.8125 26.953125 L 26.171875 8.59375 Z M 30.359375 8.59375 "/>
<path style=" stroke:none;fill-rule:nonzero;fill:rgb(55.294118%,42.352941%,62.352941%);fill-opacity:1;" d="M 46.09375 3.125 L 3.90625 3.125 C 2.613281 3.125 1.5625 4.175781 1.5625 5.46875 L 1.5625 36.71875 C 1.5625 38.011719 2.613281 39.0625 3.90625 39.0625 L 18.75 39.0625 L 18.75 40.625 L 13.015625 40.625 C 11.96875 40.625 10.992188 41.03125 10.25 41.765625 L 6.25 45.773438 C 5.804688 46.21875 5.671875 46.890625 5.914062 47.476562 C 6.15625 48.0625 6.71875 48.4375 7.351562 48.4375 L 42.648438 48.4375 C 43.28125 48.4375 43.84375 48.0625 44.085938 47.476562 C 44.328125 46.890625 44.195312 46.21875 43.75 45.773438 L 39.75 41.765625 C 39.007812 41.03125 38.03125 40.625 36.984375 40.625 L 31.25 40.625 L 31.25 39.0625 L 46.09375 39.0625 C 47.386719 39.0625 48.4375 38.011719 48.4375 36.71875 L 48.4375 5.46875 C 48.4375 4.175781 47.386719 3.125 46.09375 3.125 Z M 36.984375 42.1875 C 37.601562 42.1875 38.210938 42.4375 38.640625 42.875 L 42.648438 46.875 L 7.351562 46.875 L 11.359375 42.875 C 11.789062 42.4375 12.398438 42.1875 13.015625 42.1875 L 18.75 42.1875 L 18.75 43.75 C 18.75 44.609375 19.453125 45.3125 20.3125 45.3125 L 29.6875 45.3125 C 30.546875 45.3125 31.25 44.609375 31.25 43.75 L 31.25 42.1875 Z M 29.6875 40.625 L 29.6875 43.75 L 20.3125 43.75 L 20.3125 39.0625 L 29.6875 39.0625 Z M 46.875 36.71875 C 46.875 37.148438 46.523438 37.5 46.09375 37.5 L 3.90625 37.5 C 3.476562 37.5 3.125 37.148438 3.125 36.71875 L 3.125 5.46875 C 3.125 5.039062 3.476562 4.6875 3.90625 4.6875 L 46.09375 4.6875 C 46.523438 4.6875 46.875 5.039062 46.875 5.46875 Z M 46.875 36.71875 "/>
<path style=" stroke:none;fill-rule:nonzero;fill:rgb(55.294118%,42.352941%,62.352941%);fill-opacity:1;" d="M 42.96875 7.8125 L 7.03125 7.8125 C 6.601562 7.8125 6.25 8.160156 6.25 8.59375 L 6.25 33.59375 C 6.25 34.027344 6.601562 34.375 7.03125 34.375 L 42.96875 34.375 C 43.398438 34.375 43.75 34.027344 43.75 33.59375 L 43.75 8.59375 C 43.75 8.160156 43.398438 7.8125 42.96875 7.8125 Z M 42.1875 32.8125 L 7.8125 32.8125 L 7.8125 9.375 L 42.1875 9.375 Z M 42.1875 32.8125 "/>
<path style=" stroke:none;fill-rule:nonzero;fill:rgb(55.294118%,42.352941%,62.352941%);fill-opacity:1;" d="M 13.28125 28.125 C 12.851562 28.125 12.5 28.472656 12.5 28.90625 L 12.5 30.46875 C 12.5 30.902344 12.851562 31.25 13.28125 31.25 C 13.710938 31.25 14.0625 30.902344 14.0625 30.46875 L 14.0625 28.90625 C 14.0625 28.472656 13.710938 28.125 13.28125 28.125 Z M 9.375 31.25 C 9.804688 31.25 10.15625 30.902344 10.15625 30.46875 L 10.15625 28.90625 C 10.15625 28.472656 9.804688 28.125 9.375 28.125 C 8.945312 28.125 8.59375 28.472656 8.59375 28.90625 L 8.59375 30.46875 C 8.59375 30.902344 8.945312 31.25 9.375 31.25 Z M 17.1875 28.125 C 16.757812 28.125 16.40625 28.472656 16.40625 28.90625 L 16.40625 30.46875 C 16.40625 30.902344 16.757812 31.25 17.1875 31.25 C 17.617188 31.25 17.96875 30.902344 17.96875 30.46875 L 17.96875 28.90625 C 17.96875 28.472656 17.617188 28.125 17.1875 28.125 Z M 21.09375 31.25 C 21.523438 31.25 21.875 30.902344 21.875 30.46875 L 21.875 28.90625 C 21.875 28.472656 21.523438 28.125 21.09375 28.125 C 20.664062 28.125 20.3125 28.472656 20.3125 28.90625 L 20.3125 30.46875 C 20.3125 30.902344 20.664062 31.25 21.09375 31.25 Z M 25 31.25 C 25.429688 31.25 25.78125 30.902344 25.78125 30.46875 L 25.78125 28.90625 C 25.78125 28.472656 25.429688 28.125 25 28.125 C 24.570312 28.125 24.21875 28.472656 24.21875 28.90625 L 24.21875 30.46875 C 24.21875 30.902344 24.570312 31.25 25 31.25 Z M 32.8125 28.125 C 32.382812 28.125 32.03125 28.472656 32.03125 28.90625 L 32.03125 30.46875 C 32.03125 30.902344 32.382812 31.25 32.8125 31.25 C 33.242188 31.25 33.59375 30.902344 33.59375 30.46875 L 33.59375 28.90625 C 33.59375 28.472656 33.242188 28.125 32.8125 28.125 Z M 28.90625 31.25 C 29.335938 31.25 29.6875 30.902344 29.6875 30.46875 L 29.6875 28.90625 C 29.6875 28.472656 29.335938 28.125 28.90625 28.125 C 28.476562 28.125 28.125 28.472656 28.125 28.90625 L 28.125 30.46875 C 28.125 30.902344 28.476562 31.25 28.90625 31.25 Z M 36.71875 28.125 C 36.289062 28.125 35.9375 28.472656 35.9375 28.90625 L 35.9375 30.46875 C 35.9375 30.902344 36.289062 31.25 36.71875 31.25 C 37.148438 31.25 37.5 30.902344 37.5 30.46875 L 37.5 28.90625 C 37.5 28.472656 37.148438 28.125 36.71875 28.125 Z M 40.625 31.25 C 41.054688 31.25 41.40625 30.902344 41.40625 30.46875 L 41.40625 28.90625 C 41.40625 28.472656 41.054688 28.125 40.625 28.125 C 40.195312 28.125 39.84375 28.472656 39.84375 28.90625 L 39.84375 30.46875 C 39.84375 30.902344 40.195312 31.25 40.625 31.25 Z M 30.699219 26.332031 C 30.851562 26.484375 31.050781 26.5625 31.25 26.5625 C 31.449219 26.5625 31.648438 26.484375 31.800781 26.332031 L 38.050781 20.082031 C 38.359375 19.777344 38.359375 19.285156 38.050781 18.980469 L 31.800781 12.730469 C 31.496094 12.421875 31.003906 12.421875 30.699219 12.730469 C 30.390625 13.035156 30.390625 13.527344 30.699219 13.832031 L 36.394531 19.53125 L 30.699219 25.230469 C 30.390625 25.535156 30.390625 26.027344 30.699219 26.332031 Z M 18.199219 26.332031 C 18.351562 26.484375 18.550781 26.5625 18.75 26.5625 C 18.949219 26.5625 19.148438 26.484375 19.300781 26.332031 C 19.609375 26.027344 19.609375 25.535156 19.300781 25.230469 L 13.605469 19.53125 L 19.300781 13.832031 C 19.609375 13.527344 19.609375 13.035156 19.300781 12.730469 C 18.996094 12.421875 18.503906 12.421875 18.199219 12.730469 L 11.949219 18.980469 C 11.640625 19.285156 11.640625 19.777344 11.949219 20.082031 Z M 18.199219 26.332031 "/>
<path style=" stroke:none;fill-rule:nonzero;fill:rgb(100%,97.254902%,97.254902%);fill-opacity:1;" d="M 20.703125 14.839844 L 21.671875 16.609375 L 23.441406 17.578125 L 21.671875 18.542969 L 20.703125 20.3125 L 19.738281 18.542969 L 17.96875 17.578125 L 19.738281 16.609375 Z M 37.828125 11.84375 L 38.496094 13.066406 L 39.71875 13.734375 L 38.496094 14.402344 L 37.828125 15.625 L 37.160156 14.402344 L 35.9375 13.734375 L 37.160156 13.066406 Z M 27.070312 25.550781 L 27.523438 26.382812 L 28.355469 26.835938 L 27.523438 27.292969 L 27.070312 28.125 L 26.613281 27.292969 L 25.78125 26.835938 L 26.613281 26.382812 Z M 27.070312 25.550781 "/>
</g>
</svg>
