<?xml version="1.0" encoding="UTF-8"?>
<svg xmlns="http://www.w3.org/2000/svg" xmlns:xlink="http://www.w3.org/1999/xlink" width="50px" height="50px" viewBox="0 0 50 50" version="1.1">
<defs>
<linearGradient id="linear0" gradientUnits="userSpaceOnUse" x1="44.083" y1="28" x2="44.083" y2="44.851" spreadMethod="reflect" gradientTransform="matrix(0.78125,0,0,0.78125,0,0)">
<stop offset="0" style="stop-color:rgb(42.745098%,78.039216%,100%);stop-opacity:1;"/>
<stop offset="1" style="stop-color:rgb(90.196078%,67.058824%,100%);stop-opacity:1;"/>
</linearGradient>
<linearGradient id="linear1" gradientUnits="userSpaceOnUse" x1="32" y1="9" x2="32" y2="56" spreadMethod="reflect" gradientTransform="matrix(0.78125,0,0,0.78125,0,0)">
<stop offset="0" style="stop-color:rgb(10.196078%,42.745098%,100%);stop-opacity:1;"/>
<stop offset="1" style="stop-color:rgb(78.431373%,13.333333%,100%);stop-opacity:1;"/>
</linearGradient>
<linearGradient id="linear2" gradientUnits="userSpaceOnUse" x1="36.08" y1="47" x2="36.08" y2="53.04" spreadMethod="reflect" gradientTransform="matrix(0.78125,0,0,0.78125,0,0)">
<stop offset="0" style="stop-color:rgb(42.745098%,78.039216%,100%);stop-opacity:1;"/>
<stop offset="1" style="stop-color:rgb(90.196078%,67.058824%,100%);stop-opacity:1;"/>
</linearGradient>
<linearGradient id="linear3" gradientUnits="userSpaceOnUse" x1="22" y1="21" x2="22" y2="36" spreadMethod="reflect" gradientTransform="matrix(0.78125,0,0,0.78125,0,0)">
<stop offset="0" style="stop-color:rgb(42.745098%,78.039216%,100%);stop-opacity:1;"/>
<stop offset="1" style="stop-color:rgb(90.196078%,67.058824%,100%);stop-opacity:1;"/>
</linearGradient>
</defs>
<g id="surface216691">
<path style=" stroke:none;fill-rule:nonzero;fill:url(#linear0);" d="M 39.84375 25.78125 L 39.84375 24.21875 L 33.59375 24.21875 L 33.59375 21.875 L 32.03125 21.875 L 32.03125 24.21875 L 29.035156 24.21875 L 29.6875 25.78125 L 36.414062 25.78125 C 35.933594 26.632812 35.136719 27.894531 33.984375 29.238281 C 33.28125 28.457031 32.570312 27.582031 31.890625 26.605469 L 30.609375 27.496094 C 31.359375 28.578125 32.144531 29.542969 32.917969 30.394531 C 32.503906 30.808594 32.058594 31.222656 31.578125 31.628906 L 32.582031 32.824219 C 33.089844 32.398438 33.558594 31.964844 33.996094 31.527344 C 36.25 33.777344 38.144531 34.96875 38.261719 35.039062 L 39.082031 33.710938 C 39.058594 33.695312 37.230469 32.546875 35.0625 30.382812 C 36.769531 28.425781 37.773438 26.613281 38.191406 25.78125 Z M 39.84375 25.78125 "/>
<path style=" stroke:none;fill-rule:nonzero;fill:url(#linear1);" d="M 41.40625 14.0625 L 25.882812 14.0625 L 23.382812 7.53125 C 23.273438 7.234375 22.976562 7.03125 22.65625 7.03125 L 8.59375 7.03125 C 7.304688 7.03125 6.25 8.085938 6.25 9.375 L 6.25 34.375 C 6.25 35.664062 7.304688 36.71875 8.59375 36.71875 L 23.65625 36.71875 L 25.820312 43.21875 C 25.90625 43.484375 26.132812 43.679688 26.40625 43.734375 C 26.460938 43.742188 26.507812 43.75 26.5625 43.75 L 41.40625 43.75 C 42.695312 43.75 43.75 42.695312 43.75 41.40625 L 43.75 16.40625 C 43.75 15.117188 42.695312 14.0625 41.40625 14.0625 Z M 8.59375 35.15625 C 8.164062 35.15625 7.8125 34.804688 7.8125 34.375 L 7.8125 9.375 C 7.8125 8.945312 8.164062 8.59375 8.59375 8.59375 L 22.117188 8.59375 L 31.679688 35.15625 Z M 25.304688 36.71875 L 31.070312 36.71875 L 26.875 41.4375 Z M 42.1875 41.40625 C 42.1875 41.835938 41.835938 42.1875 41.40625 42.1875 L 28.304688 42.1875 L 33.398438 36.453125 L 33.390625 36.453125 C 33.414062 36.429688 33.4375 36.40625 33.453125 36.382812 C 33.601562 36.171875 33.632812 35.898438 33.539062 35.65625 L 26.476562 15.625 L 41.40625 15.625 C 41.835938 15.625 42.1875 15.976562 42.1875 16.40625 Z M 42.1875 41.40625 "/>
<path style=" stroke:none;fill-rule:nonzero;fill:url(#linear2);" d="M 31.070312 36.71875 L 26.875 41.4375 L 25.304688 36.71875 Z M 31.070312 36.71875 "/>
<path style=" stroke:none;fill-rule:nonzero;fill:url(#linear3);" d="M 18.882812 25 L 15.476562 25 L 14.691406 28.125 L 12.5 28.125 L 16.222656 16.40625 L 18.132812 16.40625 L 21.875 28.125 L 19.683594 28.125 Z M 15.972656 23.4375 L 18.394531 23.4375 L 17.175781 18.972656 Z M 15.972656 23.4375 "/>
</g>
</svg>
