<svg aria-hidden="true" style="position: absolute; width: 0; height: 0; overflow: hidden;" version="1.1" xmlns="http://www.w3.org/2000/svg" xmlns:xlink="http://www.w3.org/1999/xlink">
<defs>

<symbol id="icon-grid" viewBox="0 0 32 32">
<title>grid</title>
<path d="M8 12h4v-4h-4v4zM14 12h4v-4h-4v4zM20 8v4h4v-4h-4zM8 18h4v-4h-4v4zM14 18h4v-4h-4v4zM20 18h4v-4h-4v4zM8 24h4v-4h-4v4zM14 24h4v-4h-4v4zM20 24h4v-4h-4v4z"></path>
</symbol>

<symbol id="icon-user" viewBox="0 0 20 20">
<title>user</title>
<path d="M10 20c-5.523 0-10-4.477-10-10s4.477-10 10-10v0c5.523 0 10 4.477 10 10s-4.477 10-10 10v0zM7 6v2c0 1.657 1.343 3 3 3s3-1.343 3-3v0-2c0-1.657-1.343-3-3-3s-3 1.343-3 3v0zM3.35 14.44c1.456 2.155 3.89 3.553 6.65 3.553s5.194-1.398 6.632-3.525l0.018-0.028c-1.951-0.918-4.238-1.453-6.65-1.453s-4.699 0.536-6.748 1.495l0.098-0.041z"></path>
</symbol>

<symbol id="icon-google" viewBox="0 0 32 32">
<title>google</title>
<path d="M16.32 13.713v5.487h9.075c-0.367 2.353-2.741 6.899-9.075 6.899-5.46 0-9.919-4.519-9.919-10.099s4.46-10.099 9.919-10.099c3.107 0 5.188 1.319 6.38 2.465l4.339-4.184c-2.787-2.601-6.4-4.183-10.719-4.183-8.847 0-16 7.153-16 16s7.153 16 16 16c9.235 0 15.36-6.492 15.36-15.635 0-1.051-0.113-1.853-0.252-2.652h-15.108z">
</path>
</symbol>


<symbol id="icon-maps" viewBox="0 0 50 50">
<title>maps</title>
<g>
<path style=" stroke:none;fill-rule:nonzero;fill:rgb(10.980392%,60%,34.117647%);fill-opacity:1;" d="M 43.75 40.625 L 43.75 9.375 C 43.75 7.648438 42.351562 6.25 40.625 6.25 L 9.375 6.25 C 7.648438 6.25 6.25 7.648438 6.25 9.375 L 6.25 40.625 C 6.25 42.351562 7.648438 43.75 9.375 43.75 L 40.625 43.75 C 42.351562 43.75 43.75 42.351562 43.75 40.625 Z M 43.75 40.625 "/>
<path style=" stroke:none;fill-rule:nonzero;fill:rgb(24.313725%,48.235294%,94.509804%);fill-opacity:1;" d="M 9.375 43.75 L 40.625 43.75 C 42.351562 43.75 25 27.082031 25 27.082031 C 25 27.082031 7.648438 43.75 9.375 43.75 Z M 9.375 43.75 "/>
<path style=" stroke:none;fill-rule:nonzero;fill:rgb(79.607843%,80%,78.823529%);fill-opacity:1;" d="M 43.75 40.625 L 43.75 9.375 C 43.75 7.648438 27.082031 25 27.082031 25 C 27.082031 25 43.75 42.351562 43.75 40.625 Z M 43.75 40.625 "/>
<path style=" stroke:none;fill-rule:nonzero;fill:rgb(93.72549%,93.72549%,93.72549%);fill-opacity:1;" d="M 40.625 43.75 C 42.351562 43.75 43.75 42.351562 43.75 40.625 L 43.75 40.371094 L 27.339844 23.957031 L 23.957031 27.339844 L 40.371094 43.75 Z M 40.625 43.75 "/>
<path style=" stroke:none;fill-rule:nonzero;fill:rgb(100%,84.313725%,23.921569%);fill-opacity:1;" d="M 43.75 9.375 C 43.75 7.648438 42.351562 6.25 40.625 6.25 L 40.371094 6.25 L 6.25 40.371094 L 6.25 40.625 C 6.25 42.351562 7.648438 43.75 9.375 43.75 L 9.628906 43.75 L 43.75 9.628906 Z M 43.75 9.375 "/>
<path style=" stroke:none;fill-rule:nonzero;fill:rgb(84.313725%,24.705882%,20.784314%);fill-opacity:1;" d="M 37.5 2.082031 C 31.746094 2.082031 27.082031 6.746094 27.082031 12.5 C 27.082031 19.597656 35.070312 22.183594 36.804688 33.179688 C 36.917969 33.886719 36.925781 34.375 37.5 34.375 C 38.074219 34.375 38.082031 33.886719 38.195312 33.179688 C 39.929688 22.183594 47.917969 19.597656 47.917969 12.5 C 47.917969 6.746094 43.253906 2.082031 37.5 2.082031 Z M 37.5 2.082031 "/>
<path style=" stroke:none;fill-rule:nonzero;fill:rgb(45.882353%,14.901961%,13.333333%);fill-opacity:1;" d="M 37.5 8.855469 C 35.488281 8.855469 33.855469 10.488281 33.855469 12.5 C 33.855469 14.511719 35.488281 16.144531 37.5 16.144531 C 39.511719 16.144531 41.144531 14.511719 41.144531 12.5 C 41.144531 10.488281 39.511719 8.855469 37.5 8.855469 Z M 37.5 8.855469 "/>
<path style=" stroke:none;fill-rule:nonzero;fill:rgb(100%,100%,100%);fill-opacity:1;" d="M 15.097656 13.054688 L 15.097656 15.242188 L 18.214844 15.242188 C 17.808594 16.570312 16.699219 17.519531 15.097656 17.519531 C 13.1875 17.519531 11.640625 15.972656 11.640625 14.0625 C 11.640625 12.152344 13.1875 10.605469 15.097656 10.605469 C 15.957031 10.605469 16.738281 10.917969 17.34375 11.4375 L 18.957031 9.824219 C 17.9375 8.898438 16.582031 8.332031 15.097656 8.332031 C 11.933594 8.332031 9.367188 10.898438 9.367188 14.0625 C 9.367188 17.226562 11.933594 19.792969 15.097656 19.792969 C 20.105469 19.792969 20.96875 15.292969 20.496094 13.0625 Z M 15.097656 13.054688 "/>
</g>
</symbol>

<symbol id="icon-youtube" viewBox="0 0 32 32">
<title>youtube</title>
<path fill="#f00" d="M31.327 8.273c-0.386-1.353-1.431-2.398-2.756-2.777l-0.028-0.007c-2.493-0.668-12.528-0.668-12.528-0.668s-10.009-0.013-12.528 0.668c-1.353 0.386-2.398 1.431-2.777 2.756l-0.007 0.028c-0.443 2.281-0.696 4.903-0.696 7.585 0 0.054 0 0.109 0 0.163l-0-0.008c-0 0.037-0 0.082-0 0.126 0 2.682 0.253 5.304 0.737 7.845l-0.041-0.26c0.386 1.353 1.431 2.398 2.756 2.777l0.028 0.007c2.491 0.669 12.528 0.669 12.528 0.669s10.008 0 12.528-0.669c1.353-0.386 2.398-1.431 2.777-2.756l0.007-0.028c0.425-2.233 0.668-4.803 0.668-7.429 0-0.099-0-0.198-0.001-0.297l0 0.015c0.001-0.092 0.001-0.201 0.001-0.31 0-2.626-0.243-5.196-0.708-7.687l0.040 0.258zM12.812 20.801v-9.591l8.352 4.803z">
</path>
</symbol>

<symbol id="icon-play" viewBox="0 0 32 32">
<title>play</title>
<path fill="#607d8b" d="M1.627 0c-0.040 0.124-0.080 0.247-0.080 0.411v30.972c0 0.289 0.081 0.453 0.245 0.617l15.22-16.124-15.385-15.876zM18.039 16.944l3.935 4.060-5.617 3.2s-7.14 4.059-11.077 6.319l12.76-13.579zM19.107 15.836l4.221 4.389c0.661-0.368 5.828-3.323 6.565-3.733 0.779-0.451 0.7-1.067 0.039-1.395-0.612-0.34-5.779-3.3-6.56-3.78l-4.265 4.519zM18.036 14.769l3.979-4.225-5.679-3.241s-9.257-5.296-12.337-7.064l14.037 14.531z"></path>
</symbol>

<symbol id="icon-news" viewBox="0 0 32 32">
<title>news</title>
<path d="M29 0h-22c-1.657 0-3 1.342-3 3v2h-1c-1.657 0-3 1.342-3 3v20c0 2.209 1.791 4 4 4h24c2.209 0 4-1.791 4-4v-25c0-1.658-1.344-3-3-3zM30 28c0 1.102-0.898 2-2 2h-24c-1.103 0-2-0.898-2-2v-20c0-0.552 0.448-1 1-1h1v20c0 0.553 0.447 1 1 1s1-0.447 1-1v-24c0-0.552 0.448-1 1-1h22c0.551 0 1 0.448 1 1v25zM19.498 13.005c-0.275 0-0.5-0.224-0.5-0.5s0.225-0.5 0.5-0.5h8c0.277 0 0.5 0.224 0.5 0.5s-0.223 0.5-0.5 0.5h-8zM19.498 10.005c-0.275 0-0.5-0.224-0.5-0.5s0.225-0.5 0.5-0.5h8c0.277 0 0.5 0.224 0.5 0.5s-0.223 0.5-0.5 0.5h-8zM19.498 7.005c-0.275 0-0.5-0.224-0.5-0.5s0.225-0.5 0.5-0.5h8c0.277 0 0.5 0.224 0.5 0.5s-0.223 0.5-0.5 0.5h-8zM16.5 27.004c0.276 0 0.5 0.225 0.5 0.5 0 0.277-0.225 0.5-0.5 0.5h-8c-0.276 0-0.5-0.223-0.5-0.5 0-0.275 0.224-0.5 0.5-0.5h8zM16.5 24.004c0.276 0 0.5 0.225 0.5 0.5 0 0.277-0.225 0.5-0.5 0.5h-8c-0.276 0-0.5-0.223-0.5-0.5 0-0.275 0.224-0.5 0.5-0.5h8zM16.5 21.004c0.276 0 0.5 0.225 0.5 0.5 0 0.277-0.225 0.5-0.5 0.5h-8c-0.276 0-0.5-0.223-0.5-0.5 0-0.275 0.224-0.5 0.5-0.5h8zM27.5 27.004c0.275 0 0.5 0.225 0.5 0.5 0 0.277-0.225 0.5-0.5 0.5h-8c-0.277 0-0.5-0.223-0.5-0.5 0-0.275 0.223-0.5 0.5-0.5h8zM27.5 24.004c0.275 0 0.5 0.225 0.5 0.5 0 0.277-0.225 0.5-0.5 0.5h-8c-0.277 0-0.5-0.223-0.5-0.5 0-0.275 0.223-0.5 0.5-0.5h8zM27.5 21.004c0.275 0 0.5 0.225 0.5 0.5 0 0.277-0.225 0.5-0.5 0.5h-8c-0.277 0-0.5-0.223-0.5-0.5 0-0.275 0.223-0.5 0.5-0.5h8zM27.5 15.004c0.275 0 0.5 0.224 0.5 0.5s-0.225 0.5-0.5 0.5h-19c-0.276 0-0.5-0.224-0.5-0.5s0.224-0.5 0.5-0.5h19zM27.5 18.004c0.275 0 0.5 0.225 0.5 0.5 0 0.277-0.225 0.5-0.5 0.5h-19c-0.276 0-0.5-0.223-0.5-0.5 0-0.275 0.224-0.5 0.5-0.5h19zM9 13h7c0.553 0 1-0.447 1-1v-6.996c0-0.553-0.447-1-1-1h-7c-0.553 0-1 0.447-1 1v6.996c0 0.552 0.447 1 1 1zM10 6h5v5h-5v-5z"></path>
</symbol>

<symbol id="icon-gmail" viewBox="0 0 32 32">
<title>gmail</title>
<path fill="#d14836" d="M32 6v20c0 1.133-0.867 2-2 2h-2v-18.151l-12 8.617-12-8.617v18.151h-2c-1.135 0-2-0.867-2-2v-20c0-0.567 0.216-1.067 0.575-1.424 0.359-0.363 0.86-0.576 1.425-0.576h0.667l13.333 9.667 13.333-9.667h0.667c0.567 0 1.067 0.216 1.425 0.576 0.36 0.357 0.575 0.857 0.575 1.424z"></path>
</symbol>

<symbol id="icon-contacts" viewBox="0 0 32 32">
<title>contacts</title>
<path d="M6 0v32h24v-32h-24zM18 8.010c2.203 0 3.99 1.786 3.99 3.99s-1.786 3.99-3.99 3.99-3.99-1.786-3.99-3.99 1.786-3.99 3.99-3.99v0zM24 24h-12v-2c0-2.209 1.791-4 4-4v0h4c2.209 0 4 1.791 4 4v2z"></path>
<path d="M2 2h3v6h-3v-6z"></path>
<path d="M2 10h3v6h-3v-6z"></path>
<path d="M2 18h3v6h-3v-6z"></path>
<path d="M2 26h3v6h-3v-6z"></path>
</symbol>

<symbol id="icon-drive" viewBox="0 0 50 50">
<title>drive</title>
<g>
<path style=" stroke:none;fill-rule:nonzero;fill:rgb(100%,75.686275%,2.745098%);fill-opacity:1;" d="M 17.707031 6.25 L 32.292969 6.25 L 46.875 31.25 L 32.292969 31.25 Z M 17.707031 6.25 "/>
<path style=" stroke:none;fill-rule:nonzero;fill:rgb(9.803922%,46.27451%,82.352941%);fill-opacity:1;" d="M 10.285156 43.75 L 17.644531 31.25 L 46.875 31.25 L 39.582031 43.75 Z M 10.285156 43.75 "/>
<path style=" stroke:none;fill-rule:nonzero;fill:rgb(29.803922%,68.627451%,31.372549%);fill-opacity:1;" d="M 3.125 31.378906 L 10.285156 43.75 L 25 18.75 L 17.707031 6.25 Z M 3.125 31.378906 "/>
</g>
</symbol>

<symbol id="playMusic" viewBox="0 0 50 50">
<title>playMusic</title>
<g>
<path style=" stroke:none;fill-rule:nonzero;fill:rgb(100%,23.921569%,0%);fill-opacity:1;" d="M 22.710938 10.53125 L 10.609375 3.707031 C 9.914062 3.3125 9.355469 3.125 8.550781 3.125 C 7.171875 3.125 6.25 4.035156 6.25 5.632812 L 6.25 44.367188 C 6.25 45.964844 7.171875 46.875 8.550781 46.875 C 9.355469 46.875 9.914062 46.6875 10.609375 46.292969 L 20.355469 40.796875 L 20.390625 38.738281 L 39.035156 27.859375 L 41.261719 29.007812 L 44.164062 27.371094 C 45.089844 26.847656 45.832031 26.140625 45.832031 25 C 45.832031 23.859375 45.089844 23.152344 44.164062 22.625 L 40.308594 20.441406 Z M 22.710938 10.53125 "/>
<path style=" stroke:none;fill-rule:nonzero;fill:rgb(100%,83.921569%,0%);fill-opacity:1;" d="M 20.355469 40.796875 L 28.117188 36.421875 L 32.320312 34.050781 L 41.261719 29.007812 C 41.515625 27.882812 41.667969 26.722656 41.667969 25.519531 C 41.667969 16.605469 34.4375 9.375 25.519531 9.375 C 17.085938 9.375 10.164062 15.84375 9.4375 24.089844 C 9.394531 24.558594 9.375 25.039062 9.375 25.519531 C 9.375 32.628906 13.976562 38.640625 20.355469 40.796875 Z M 20.355469 40.796875 "/>
<path style=" stroke:none;fill-rule:nonzero;fill:rgb(100%,56.078431%,0%);fill-opacity:1;" d="M 25.519531 15.625 C 20.054688 15.625 15.625 20.054688 15.625 25.519531 C 15.625 30.984375 20.054688 35.417969 25.519531 35.417969 C 30.984375 35.417969 35.417969 30.984375 35.417969 25.519531 C 35.417969 20.054688 30.984375 15.625 25.519531 15.625 Z M 25.519531 15.625 "/>
<path style=" stroke:none;fill-rule:nonzero;fill:rgb(100%,100%,100%);fill-opacity:1;" d="M 25.363281 19.792969 L 25.363281 25.90625 C 25.015625 25.707031 24.617188 25.585938 24.191406 25.585938 C 22.898438 25.585938 21.875 26.628906 21.875 27.898438 C 21.875 29.191406 22.921875 30.210938 24.191406 30.210938 C 25.488281 30.210938 26.609375 29.164062 26.609375 27.898438 L 26.609375 22.277344 L 28.855469 22.277344 L 28.855469 19.792969 Z M 25.363281 19.792969 "/>
</g>
</symbol>

<symbol id="googlePlus" viewBox="0 0 32 32">
<title>googleplus</title>
<path fill="#dc4e41" d="M10.18 14.545v3.492h5.78c-0.231 1.5-1.747 4.393-5.775 4.393-3.472 0-6.308-2.88-6.308-6.431 0-3.549 2.829-6.429 6.304-6.429 1.98 0 3.305 0.844 4.060 1.571l2.764-2.659c-1.773-1.66-4.075-2.66-6.82-2.66-5.636-0.003-10.185 4.557-10.185 10.177s4.552 10.18 10.18 10.18c5.88 0 9.776-4.131 9.776-9.948 0-0.668-0.072-1.18-0.16-1.687h-9.616zM32 14.545h-2.911v-2.911h-2.911v2.911h-2.909v2.908h2.912v2.912h2.919v-2.912h2.9z"></path>
</symbol>

<symbol id="googleChrome" viewBox="0 0 32 32">
<title>googlechrome</title>
<path fill="#4285f4" d="M21.619 11.587l8.953-2.239c0.902 1.943 1.428 4.217 1.428 6.615v0c0 8.797-7.241 16.037-16.043 16.037-0.403 0-0.807-0.015-1.209-0.045l6.54-11.129c0.475-0.501 0.873-1.071 1.175-1.695 0.44-0.909 0.697-1.978 0.697-3.106 0-1.175-0.279-2.284-0.774-3.266l0.019 0.042c-0.237-0.462-0.498-0.859-0.797-1.226l0.010 0.013zM17.299 23.020l-2.828 8.909c-8.153-0.803-14.471-7.743-14.471-15.96 0-3.18 0.945-6.289 2.717-8.931l6.445 11.169c0.24 0.719 1.492 3.441 4.089 4.436 1.331 0.509 2.721 0.641 4.047 0.376zM15.964 10.16c-2.675 0.025-5.171 2.059-5.708 4.683-0.070 0.344-0.11 0.739-0.11 1.143 0 1.654 0.673 3.151 1.76 4.233l0 0c1.619 1.581 4.187 2.104 6.312 1.236 1.877-0.768 3.293-2.569 3.588-4.575 0.363-2.475-1.051-5.109-3.327-6.172-0.727-0.346-1.58-0.548-2.48-0.548-0.012 0-0.024 0-0.037 0h0.002zM9.395 13.283l-6.383-6.665c2.952-4.029 7.666-6.615 12.984-6.617h0c6.080 0 11.659 3.456 14.365 8.9h-13.617c-2.415-0.167-4.384 0.693-5.687 1.937-0.702 0.675-1.265 1.489-1.645 2.398l-0.017 0.047z"></path>
</symbol>

<symbol id="code" viewBox="0 0 50 50">
<title>code</title>
<g>
<path style=" stroke:none;fill-rule:nonzero;fill:rgb(36.470588%,73.72549%,61.568627%);fill-opacity:1;" d="M 42.644531 47.65625 L 7.355469 47.65625 C 6.660156 47.65625 6.308594 46.816406 6.800781 46.324219 L 10.804688 42.320312 C 11.390625 41.734375 12.183594 41.40625 13.011719 41.40625 L 36.984375 41.40625 C 37.816406 41.40625 38.609375 41.734375 39.195312 42.320312 L 43.195312 46.324219 C 43.691406 46.816406 43.339844 47.65625 42.644531 47.65625 Z M 42.644531 47.65625 "/>
<path style=" stroke:none;fill-rule:nonzero;fill:rgb(44.705882%,79.215686%,68.627451%);fill-opacity:1;" d="M 46.09375 38.28125 L 3.90625 38.28125 C 3.042969 38.28125 2.34375 37.582031 2.34375 36.71875 L 2.34375 5.46875 C 2.34375 4.605469 3.042969 3.90625 3.90625 3.90625 L 46.09375 3.90625 C 46.957031 3.90625 47.65625 4.605469 47.65625 5.46875 L 47.65625 36.71875 C 47.65625 37.582031 46.957031 38.28125 46.09375 38.28125 Z M 46.09375 38.28125 "/>
<path style=" stroke:none;fill-rule:nonzero;fill:rgb(77.254902%,89.411765%,98.039216%);fill-opacity:1;" d="M 7.03125 8.59375 L 42.96875 8.59375 L 42.96875 33.59375 L 7.03125 33.59375 Z M 7.03125 8.59375 "/>
<path style=" stroke:none;fill-rule:nonzero;fill:rgb(44.705882%,79.215686%,68.627451%);fill-opacity:1;" d="M 29.6875 44.53125 L 20.3125 44.53125 C 19.882812 44.53125 19.53125 44.179688 19.53125 43.75 L 19.53125 38.28125 L 30.46875 38.28125 L 30.46875 43.75 C 30.46875 44.179688 30.117188 44.53125 29.6875 44.53125 Z M 29.6875 44.53125 "/>
<path style=" stroke:none;fill-rule:nonzero;fill:rgb(36.470588%,73.72549%,61.568627%);fill-opacity:1;" d="M 19.53125 38.28125 L 30.46875 38.28125 L 30.46875 41.40625 L 19.53125 41.40625 Z M 19.53125 38.28125 "/>
<path style=" stroke:none;fill-rule:nonzero;fill:rgb(89.019608%,94.901961%,100%);fill-opacity:1;" d="M 29.632812 33.59375 L 43.75 19.476562 L 43.75 8.59375 L 42.074219 8.59375 L 17.074219 33.59375 Z M 8.707031 33.59375 L 13.726562 33.59375 L 38.726562 8.59375 L 33.707031 8.59375 Z M 30.359375 8.59375 L 7.8125 31.140625 L 7.8125 26.953125 L 26.171875 8.59375 Z M 30.359375 8.59375 "/>
<path style=" stroke:none;fill-rule:nonzero;fill:rgb(55.294118%,42.352941%,62.352941%);fill-opacity:1;" d="M 46.09375 3.125 L 3.90625 3.125 C 2.613281 3.125 1.5625 4.175781 1.5625 5.46875 L 1.5625 36.71875 C 1.5625 38.011719 2.613281 39.0625 3.90625 39.0625 L 18.75 39.0625 L 18.75 40.625 L 13.015625 40.625 C 11.96875 40.625 10.992188 41.03125 10.25 41.765625 L 6.25 45.773438 C 5.804688 46.21875 5.671875 46.890625 5.914062 47.476562 C 6.15625 48.0625 6.71875 48.4375 7.351562 48.4375 L 42.648438 48.4375 C 43.28125 48.4375 43.84375 48.0625 44.085938 47.476562 C 44.328125 46.890625 44.195312 46.21875 43.75 45.773438 L 39.75 41.765625 C 39.007812 41.03125 38.03125 40.625 36.984375 40.625 L 31.25 40.625 L 31.25 39.0625 L 46.09375 39.0625 C 47.386719 39.0625 48.4375 38.011719 48.4375 36.71875 L 48.4375 5.46875 C 48.4375 4.175781 47.386719 3.125 46.09375 3.125 Z M 36.984375 42.1875 C 37.601562 42.1875 38.210938 42.4375 38.640625 42.875 L 42.648438 46.875 L 7.351562 46.875 L 11.359375 42.875 C 11.789062 42.4375 12.398438 42.1875 13.015625 42.1875 L 18.75 42.1875 L 18.75 43.75 C 18.75 44.609375 19.453125 45.3125 20.3125 45.3125 L 29.6875 45.3125 C 30.546875 45.3125 31.25 44.609375 31.25 43.75 L 31.25 42.1875 Z M 29.6875 40.625 L 29.6875 43.75 L 20.3125 43.75 L 20.3125 39.0625 L 29.6875 39.0625 Z M 46.875 36.71875 C 46.875 37.148438 46.523438 37.5 46.09375 37.5 L 3.90625 37.5 C 3.476562 37.5 3.125 37.148438 3.125 36.71875 L 3.125 5.46875 C 3.125 5.039062 3.476562 4.6875 3.90625 4.6875 L 46.09375 4.6875 C 46.523438 4.6875 46.875 5.039062 46.875 5.46875 Z M 46.875 36.71875 "/>
<path style=" stroke:none;fill-rule:nonzero;fill:rgb(55.294118%,42.352941%,62.352941%);fill-opacity:1;" d="M 42.96875 7.8125 L 7.03125 7.8125 C 6.601562 7.8125 6.25 8.160156 6.25 8.59375 L 6.25 33.59375 C 6.25 34.027344 6.601562 34.375 7.03125 34.375 L 42.96875 34.375 C 43.398438 34.375 43.75 34.027344 43.75 33.59375 L 43.75 8.59375 C 43.75 8.160156 43.398438 7.8125 42.96875 7.8125 Z M 42.1875 32.8125 L 7.8125 32.8125 L 7.8125 9.375 L 42.1875 9.375 Z M 42.1875 32.8125 "/>
<path style=" stroke:none;fill-rule:nonzero;fill:rgb(55.294118%,42.352941%,62.352941%);fill-opacity:1;" d="M 13.28125 28.125 C 12.851562 28.125 12.5 28.472656 12.5 28.90625 L 12.5 30.46875 C 12.5 30.902344 12.851562 31.25 13.28125 31.25 C 13.710938 31.25 14.0625 30.902344 14.0625 30.46875 L 14.0625 28.90625 C 14.0625 28.472656 13.710938 28.125 13.28125 28.125 Z M 9.375 31.25 C 9.804688 31.25 10.15625 30.902344 10.15625 30.46875 L 10.15625 28.90625 C 10.15625 28.472656 9.804688 28.125 9.375 28.125 C 8.945312 28.125 8.59375 28.472656 8.59375 28.90625 L 8.59375 30.46875 C 8.59375 30.902344 8.945312 31.25 9.375 31.25 Z M 17.1875 28.125 C 16.757812 28.125 16.40625 28.472656 16.40625 28.90625 L 16.40625 30.46875 C 16.40625 30.902344 16.757812 31.25 17.1875 31.25 C 17.617188 31.25 17.96875 30.902344 17.96875 30.46875 L 17.96875 28.90625 C 17.96875 28.472656 17.617188 28.125 17.1875 28.125 Z M 21.09375 31.25 C 21.523438 31.25 21.875 30.902344 21.875 30.46875 L 21.875 28.90625 C 21.875 28.472656 21.523438 28.125 21.09375 28.125 C 20.664062 28.125 20.3125 28.472656 20.3125 28.90625 L 20.3125 30.46875 C 20.3125 30.902344 20.664062 31.25 21.09375 31.25 Z M 25 31.25 C 25.429688 31.25 25.78125 30.902344 25.78125 30.46875 L 25.78125 28.90625 C 25.78125 28.472656 25.429688 28.125 25 28.125 C 24.570312 28.125 24.21875 28.472656 24.21875 28.90625 L 24.21875 30.46875 C 24.21875 30.902344 24.570312 31.25 25 31.25 Z M 32.8125 28.125 C 32.382812 28.125 32.03125 28.472656 32.03125 28.90625 L 32.03125 30.46875 C 32.03125 30.902344 32.382812 31.25 32.8125 31.25 C 33.242188 31.25 33.59375 30.902344 33.59375 30.46875 L 33.59375 28.90625 C 33.59375 28.472656 33.242188 28.125 32.8125 28.125 Z M 28.90625 31.25 C 29.335938 31.25 29.6875 30.902344 29.6875 30.46875 L 29.6875 28.90625 C 29.6875 28.472656 29.335938 28.125 28.90625 28.125 C 28.476562 28.125 28.125 28.472656 28.125 28.90625 L 28.125 30.46875 C 28.125 30.902344 28.476562 31.25 28.90625 31.25 Z M 36.71875 28.125 C 36.289062 28.125 35.9375 28.472656 35.9375 28.90625 L 35.9375 30.46875 C 35.9375 30.902344 36.289062 31.25 36.71875 31.25 C 37.148438 31.25 37.5 30.902344 37.5 30.46875 L 37.5 28.90625 C 37.5 28.472656 37.148438 28.125 36.71875 28.125 Z M 40.625 31.25 C 41.054688 31.25 41.40625 30.902344 41.40625 30.46875 L 41.40625 28.90625 C 41.40625 28.472656 41.054688 28.125 40.625 28.125 C 40.195312 28.125 39.84375 28.472656 39.84375 28.90625 L 39.84375 30.46875 C 39.84375 30.902344 40.195312 31.25 40.625 31.25 Z M 30.699219 26.332031 C 30.851562 26.484375 31.050781 26.5625 31.25 26.5625 C 31.449219 26.5625 31.648438 26.484375 31.800781 26.332031 L 38.050781 20.082031 C 38.359375 19.777344 38.359375 19.285156 38.050781 18.980469 L 31.800781 12.730469 C 31.496094 12.421875 31.003906 12.421875 30.699219 12.730469 C 30.390625 13.035156 30.390625 13.527344 30.699219 13.832031 L 36.394531 19.53125 L 30.699219 25.230469 C 30.390625 25.535156 30.390625 26.027344 30.699219 26.332031 Z M 18.199219 26.332031 C 18.351562 26.484375 18.550781 26.5625 18.75 26.5625 C 18.949219 26.5625 19.148438 26.484375 19.300781 26.332031 C 19.609375 26.027344 19.609375 25.535156 19.300781 25.230469 L 13.605469 19.53125 L 19.300781 13.832031 C 19.609375 13.527344 19.609375 13.035156 19.300781 12.730469 C 18.996094 12.421875 18.503906 12.421875 18.199219 12.730469 L 11.949219 18.980469 C 11.640625 19.285156 11.640625 19.777344 11.949219 20.082031 Z M 18.199219 26.332031 "/>
<path style=" stroke:none;fill-rule:nonzero;fill:rgb(100%,97.254902%,97.254902%);fill-opacity:1;" d="M 20.703125 14.839844 L 21.671875 16.609375 L 23.441406 17.578125 L 21.671875 18.542969 L 20.703125 20.3125 L 19.738281 18.542969 L 17.96875 17.578125 L 19.738281 16.609375 Z M 37.828125 11.84375 L 38.496094 13.066406 L 39.71875 13.734375 L 38.496094 14.402344 L 37.828125 15.625 L 37.160156 14.402344 L 35.9375 13.734375 L 37.160156 13.066406 Z M 27.070312 25.550781 L 27.523438 26.382812 L 28.355469 26.835938 L 27.523438 27.292969 L 27.070312 28.125 L 26.613281 27.292969 L 25.78125 26.835938 L 26.613281 26.382812 Z M 27.070312 25.550781 "/>
</g>
</symbol>

<symbol id="icon-calendar" viewBox="0 0 50 50">
<title>calendar</title>
<g>
<path style=" stroke:none;fill-rule:evenodd;fill:rgb(78.039216%,78.039216%,78.039216%);fill-opacity:1;" d="M 39.582031 5.207031 C 33.019531 5.207031 16.980469 5.207031 10.417969 5.207031 C 9.265625 5.207031 8.332031 6.140625 8.332031 7.292969 C 8.332031 10.464844 8.332031 10.417969 8.332031 10.417969 L 41.667969 10.417969 C 41.667969 10.417969 41.667969 10.464844 41.667969 7.292969 C 41.667969 6.140625 40.734375 5.207031 39.582031 5.207031 Z M 14.582031 8.332031 C 14.007812 8.332031 13.542969 7.867188 13.542969 7.292969 C 13.542969 6.714844 14.007812 6.25 14.582031 6.25 C 15.160156 6.25 15.625 6.714844 15.625 7.292969 C 15.625 7.867188 15.160156 8.332031 14.582031 8.332031 Z M 35.417969 8.332031 C 34.839844 8.332031 34.375 7.867188 34.375 7.292969 C 34.375 6.714844 34.839844 6.25 35.417969 6.25 C 35.992188 6.25 36.457031 6.714844 36.457031 7.292969 C 36.457031 7.867188 35.992188 8.332031 35.417969 8.332031 Z M 35.417969 8.332031 "/>
<path style=" stroke:none;fill-rule:evenodd;fill:rgb(9.803922%,46.27451%,82.352941%);fill-opacity:1;" d="M 45.832031 11.457031 C 45.941406 10.851562 44.367188 9.375 43.75 9.375 C 36.34375 9.375 13.65625 9.375 6.25 9.375 C 5.207031 9.375 4.058594 10.851562 4.167969 11.457031 C 5.023438 16.316406 7.292969 27.082031 7.292969 27.082031 L 42.707031 27.082031 C 42.707031 27.082031 44.976562 16.316406 45.832031 11.457031 Z M 45.832031 11.457031 "/>
<path style=" stroke:none;fill-rule:evenodd;fill:rgb(11.764706%,53.333333%,89.803922%);fill-opacity:1;" d="M 42.707031 27.082031 L 7.292969 27.082031 C 7.292969 27.082031 5.023438 37.851562 4.167969 42.707031 C 4.167969 43.902344 4.992188 44.792969 6.25 44.792969 C 13.65625 44.792969 36.34375 44.792969 43.75 44.792969 C 44.367188 44.792969 45.832031 44.269531 45.832031 42.707031 C 44.976562 37.851562 42.707031 27.082031 42.707031 27.082031 Z M 42.707031 27.082031 "/>
<path style=" stroke:none;fill-rule:evenodd;fill:rgb(98.039216%,98.039216%,98.039216%);fill-opacity:1;" d="M 21.390625 27.082031 C 22.414062 27.421875 23.148438 27.96875 23.582031 28.707031 C 24.035156 29.46875 24.257812 30.320312 24.257812 31.265625 C 24.257812 32.914062 23.71875 34.207031 22.636719 35.152344 C 21.558594 36.097656 20.175781 36.570312 18.496094 36.570312 C 16.847656 36.570312 15.484375 36.125 14.402344 35.234375 C 13.320312 34.34375 12.800781 33.136719 12.84375 31.613281 L 12.878906 31.539062 L 15.214844 31.539062 C 15.214844 32.492188 15.507812 33.25 16.089844 33.8125 C 16.675781 34.375 17.476562 34.65625 18.496094 34.65625 C 19.53125 34.65625 20.34375 34.375 20.929688 33.8125 C 21.519531 33.246094 21.8125 32.414062 21.8125 31.316406 C 21.8125 30.195312 21.550781 29.371094 21.03125 28.84375 C 20.507812 28.3125 19.683594 28.046875 18.558594 28.046875 L 16.421875 28.046875 L 16.421875 27.082031 Z M 32.957031 27.082031 L 35.402344 27.082031 L 35.402344 36.308594 L 32.957031 36.308594 Z M 32.957031 27.082031 "/>
<path style=" stroke:none;fill-rule:evenodd;fill:rgb(87.843137%,87.843137%,87.843137%);fill-opacity:1;" d="M 15.339844 22.953125 L 12.992188 22.953125 L 12.96875 22.878906 C 12.925781 21.511719 13.421875 20.351562 14.453125 19.394531 C 15.484375 18.4375 16.832031 17.960938 18.496094 17.960938 C 20.167969 17.960938 21.503906 18.40625 22.496094 19.296875 C 23.488281 20.1875 23.988281 21.457031 23.988281 23.101562 C 23.988281 23.847656 23.761719 24.589844 23.308594 25.332031 C 22.859375 26.074219 22.179688 26.640625 21.277344 27.027344 L 21.390625 27.082031 L 16.421875 27.082031 L 16.421875 26.132812 L 18.558594 26.132812 C 19.644531 26.132812 20.410156 25.863281 20.863281 25.320312 C 21.3125 24.777344 21.539062 24.023438 21.539062 23.054688 C 21.539062 22.019531 21.28125 21.230469 20.769531 20.695312 C 20.253906 20.15625 19.496094 19.886719 18.496094 19.886719 C 17.542969 19.886719 16.777344 20.164062 16.203125 20.726562 C 15.648438 21.265625 15.359375 21.976562 15.339844 22.953125 Z M 35.402344 27.082031 L 32.957031 27.082031 L 32.957031 20.605469 L 29.253906 20.65625 L 29.253906 18.890625 L 35.402344 18.222656 Z M 35.402344 27.082031 "/>
<path style=" stroke:none;fill-rule:evenodd;fill:rgb(9.803922%,46.27451%,82.352941%);fill-opacity:1;" d="M 6.25 9.375 C 4.753906 9.375 4.058594 10.851562 4.167969 11.457031 C 5.023438 16.316406 7.292969 27.082031 7.292969 27.082031 M 42.707031 27.082031 C 42.707031 27.082031 44.976562 16.316406 45.832031 11.457031 C 45.832031 9.765625 44.367188 9.375 43.75 9.375 "/>
</g>
</symbol>

<symbol id="icon-translate" viewBox="0 0 50 50">
<title>translate</title>
<!-- <defs>
<linearGradient id="linear0" gradientUnits="userSpaceOnUse" x1="44.083" y1="28" x2="44.083" y2="44.851" spreadMethod="reflect" gradientTransform="matrix(0.78125,0,0,0.78125,0,0)">
<stop offset="0" style="stop-color:rgb(42.745098%,78.039216%,100%);stop-opacity:1;"/>
<stop offset="1" style="stop-color:rgb(90.196078%,67.058824%,100%);stop-opacity:1;"/>
</linearGradient>
<linearGradient id="linear1" gradientUnits="userSpaceOnUse" x1="32" y1="9" x2="32" y2="56" spreadMethod="reflect" gradientTransform="matrix(0.78125,0,0,0.78125,0,0)">
<stop offset="0" style="stop-color:rgb(10.196078%,42.745098%,100%);stop-opacity:1;"/>
<stop offset="1" style="stop-color:rgb(78.431373%,13.333333%,100%);stop-opacity:1;"/>
</linearGradient>
<linearGradient id="linear2" gradientUnits="userSpaceOnUse" x1="36.08" y1="47" x2="36.08" y2="53.04" spreadMethod="reflect" gradientTransform="matrix(0.78125,0,0,0.78125,0,0)">
<stop offset="0" style="stop-color:rgb(42.745098%,78.039216%,100%);stop-opacity:1;"/>
<stop offset="1" style="stop-color:rgb(90.196078%,67.058824%,100%);stop-opacity:1;"/>
</linearGradient>
<linearGradient id="linear3" gradientUnits="userSpaceOnUse" x1="22" y1="21" x2="22" y2="36" spreadMethod="reflect" gradientTransform="matrix(0.78125,0,0,0.78125,0,0)">
<stop offset="0" style="stop-color:rgb(42.745098%,78.039216%,100%);stop-opacity:1;"/>
<stop offset="1" style="stop-color:rgb(90.196078%,67.058824%,100%);stop-opacity:1;"/>
</linearGradient>
</defs> -->
<g>
<path style=" stroke:none;fill-rule:nonzero;fill:url(#linear0);" d="M 39.84375 25.78125 L 39.84375 24.21875 L 33.59375 24.21875 L 33.59375 21.875 L 32.03125 21.875 L 32.03125 24.21875 L 29.035156 24.21875 L 29.6875 25.78125 L 36.414062 25.78125 C 35.933594 26.632812 35.136719 27.894531 33.984375 29.238281 C 33.28125 28.457031 32.570312 27.582031 31.890625 26.605469 L 30.609375 27.496094 C 31.359375 28.578125 32.144531 29.542969 32.917969 30.394531 C 32.503906 30.808594 32.058594 31.222656 31.578125 31.628906 L 32.582031 32.824219 C 33.089844 32.398438 33.558594 31.964844 33.996094 31.527344 C 36.25 33.777344 38.144531 34.96875 38.261719 35.039062 L 39.082031 33.710938 C 39.058594 33.695312 37.230469 32.546875 35.0625 30.382812 C 36.769531 28.425781 37.773438 26.613281 38.191406 25.78125 Z M 39.84375 25.78125 "/>
<path style=" stroke:none;fill-rule:nonzero;fill:url(#linear1);" d="M 41.40625 14.0625 L 25.882812 14.0625 L 23.382812 7.53125 C 23.273438 7.234375 22.976562 7.03125 22.65625 7.03125 L 8.59375 7.03125 C 7.304688 7.03125 6.25 8.085938 6.25 9.375 L 6.25 34.375 C 6.25 35.664062 7.304688 36.71875 8.59375 36.71875 L 23.65625 36.71875 L 25.820312 43.21875 C 25.90625 43.484375 26.132812 43.679688 26.40625 43.734375 C 26.460938 43.742188 26.507812 43.75 26.5625 43.75 L 41.40625 43.75 C 42.695312 43.75 43.75 42.695312 43.75 41.40625 L 43.75 16.40625 C 43.75 15.117188 42.695312 14.0625 41.40625 14.0625 Z M 8.59375 35.15625 C 8.164062 35.15625 7.8125 34.804688 7.8125 34.375 L 7.8125 9.375 C 7.8125 8.945312 8.164062 8.59375 8.59375 8.59375 L 22.117188 8.59375 L 31.679688 35.15625 Z M 25.304688 36.71875 L 31.070312 36.71875 L 26.875 41.4375 Z M 42.1875 41.40625 C 42.1875 41.835938 41.835938 42.1875 41.40625 42.1875 L 28.304688 42.1875 L 33.398438 36.453125 L 33.390625 36.453125 C 33.414062 36.429688 33.4375 36.40625 33.453125 36.382812 C 33.601562 36.171875 33.632812 35.898438 33.539062 35.65625 L 26.476562 15.625 L 41.40625 15.625 C 41.835938 15.625 42.1875 15.976562 42.1875 16.40625 Z M 42.1875 41.40625 "/>
<path style=" stroke:none;fill-rule:nonzero;fill:url(#linear2);" d="M 31.070312 36.71875 L 26.875 41.4375 L 25.304688 36.71875 Z M 31.070312 36.71875 "/>
<path style=" stroke:none;fill-rule:nonzero;fill:url(#linear3);" d="M 18.882812 25 L 15.476562 25 L 14.691406 28.125 L 12.5 28.125 L 16.222656 16.40625 L 18.132812 16.40625 L 21.875 28.125 L 19.683594 28.125 Z M 15.972656 23.4375 L 18.394531 23.4375 L 17.175781 18.972656 Z M 15.972656 23.4375 "/>
</g>
</symbol>

</defs>
</svg>


